<svg width="72" height="70" viewBox="0 0 72 70" fill="none" xmlns="http://www.w3.org/2000/svg">
<path d="M0 36C0 16.1178 16.1178 0 36 0C55.8823 0 72 16.1178 72 36V62C72 66.4183 68.4183 70 64 70H8C3.58172 70 0 66.4183 0 62V36Z" fill="white"/>
<path d="M38.072 54.1249C38.2558 54.4431 38.4718 54.6921 38.7041 54.8855C39.2032 55.2782 39.8354 55.5107 40.5424 55.5107C40.5771 55.5109 40.6114 55.5106 40.6453 55.5097C41.4815 55.4875 42.0708 55.1295 42.7175 54.736L42.7199 54.7345C43.0311 54.5454 43.3557 54.3481 43.7276 54.1764C43.7315 54.1747 43.7355 54.173 43.7395 54.1711C44.95 53.6135 46.1855 53.1262 47.5118 52.9049C47.9346 52.8344 48.3543 52.7849 48.7716 52.7534C50.0891 52.6541 51.3825 52.7341 52.6748 52.8949C53.6957 53.022 54.7159 53.1994 55.7466 53.3787H55.7469L55.7563 53.3804L55.7567 53.3805L55.7572 53.3805L55.7575 53.3806L55.758 53.3807C56.2549 53.4672 56.7541 53.554 57.2571 53.6358C57.303 53.6432 57.3487 53.6503 57.3944 53.6569C58.0821 53.7574 58.7452 53.7695 59.3885 53.6803C60.0746 53.5852 60.7381 53.3749 61.3848 53.0333C62.5443 52.4207 63.2768 51.505 63.476 50.194C63.6649 48.9498 63.346 47.783 63.0266 46.6143C62.7924 45.7613 62.8706 44.9427 63.6154 44.3454C64.4827 43.6497 64.0573 42.5293 63.0048 42.1456C63.8651 41.0713 63.9365 40.4651 63.3386 39.5033C62.4389 38.0529 62.5283 37.5082 63.8518 36.4006C64.8835 35.5347 64.9112 34.454 63.9168 33.5459C63.5164 33.1815 63.0538 32.888 62.5496 32.6788C61.9092 32.4028 61.3124 32.0388 60.7784 31.5981C58.9864 30.158 57.8285 28.3048 57.1298 26.178C56.9647 25.5247 56.3708 23.3295 56.1338 22.7018C54.9483 19.5645 52.6668 17.3532 49.6405 15.8555C46.3985 14.2517 42.888 13.8348 39.3158 13.8194C39.3001 13.8194 39.2843 13.8193 39.2686 13.8193C37.4418 13.8192 35.1014 14.2651 33.0805 14.8572L33.0812 14.8571C31.7943 15.2341 30.637 15.6705 29.8242 16.0888C28.6874 16.6739 27.6434 17.541 26.9084 18.7579C26.3412 19.6959 26.6041 20.4782 28.705 20.8831C29.7983 21.0573 29.7983 21.6364 28.6368 22.2154C28.0232 22.5213 27.5 22.6474 27.1053 22.7426C27.0304 22.7606 26.9599 22.7776 26.8945 22.7944C26.7404 22.8346 26.597 22.8712 26.462 22.9057L26.4613 22.9059L26.4478 22.9093C25.3247 23.1961 24.7907 23.3324 23.6586 24.0523C22.9391 24.5104 22.2861 25.0279 22.0181 25.8847C21.8386 26.455 21.8737 26.9854 22.2939 27.4551C22.7141 27.9248 23.2904 27.9403 23.855 27.7893C24.4142 27.6217 24.9339 27.3449 25.3837 26.975C26.4622 26.1428 27.6538 25.5621 29.0264 25.433C29.7041 25.3698 30.3169 25.5646 30.7176 26.166C30.9141 26.4385 31.0291 26.7604 31.0492 27.0948C31.0695 27.4293 30.9942 27.7626 30.8321 28.0564C30.2948 29.1158 29.3269 29.5339 28.2302 29.761C27.8401 29.8415 27.4419 29.8637 27.0438 29.8858L27.0434 29.8858C26.491 29.9165 25.9389 29.9472 25.4097 30.1339C24.7072 30.3817 24.1035 30.7262 23.937 31.5147C23.8108 32.1108 24.1217 32.6025 24.4262 33.0696C25.1079 34.1174 26.0693 34.8903 27.0984 35.5743C27.6652 35.9358 28.1732 36.381 28.6049 36.8943C29.1083 37.515 29.189 38.1357 28.8352 38.6763C28.4813 39.217 27.7813 39.466 27.0502 39.2816C26.5661 39.1604 26.1079 38.9541 25.6972 38.6725C24.8138 38.062 24.5223 37.4817 24.1964 36.8331L24.1963 36.8327C23.9587 36.36 23.7029 35.8509 23.1863 35.2673C21.5471 33.4156 20.1521 32.1882 17.6023 32.0591C15.7631 31.9661 14.9682 33.0146 14.6984 34.0858C14.6237 34.3827 14.5729 34.6658 14.525 34.9336C14.3998 35.6322 14.2932 36.227 13.8273 36.6915C13.1797 37.3372 11.409 37.5029 10.0985 37.6255C9.64603 37.6679 9.24833 37.7051 8.97076 37.7551C7.88925 37.9502 7.14844 38.4287 7.14844 39.5868C7.14844 40.4257 8.16087 41.1672 8.48152 41.4021L8.51282 41.425C10.2873 42.7155 12.2075 42.7735 14.1902 42.0702C15.6443 41.5331 17.1939 41.2968 18.7436 41.376C19.8754 41.4444 20.8992 41.8031 21.6968 42.6587C22.3992 43.4097 22.3876 44.3968 21.5796 45.0304C20.7262 45.7001 19.5598 45.9241 18.4734 45.9564C18.0996 45.9564 17.575 45.9608 17.3216 46.3647C17.0003 46.8769 17.2573 47.5604 17.4843 47.8215C18.5003 48.9906 20.1525 49.5675 21.5744 49.4306C23.4075 49.2487 25.1625 48.7016 26.9084 48.1403L27.0261 48.1L27.2169 48.0343C28.313 47.6564 29.1687 47.3614 30.3792 47.4039C32.7449 47.4095 36.254 50.6101 37.8952 53.7734C37.9463 53.8907 38.0013 54.0004 38.0595 54.1031C38.0627 54.1098 38.0688 54.1182 38.072 54.1249C38.073 54.1255 38.071 54.1243 38.072 54.1249Z" fill="#7C2CFC"/>
<path d="M12.9369 43.9308C13.6987 43.9281 14.4313 44.2237 14.9776 44.754C15.5238 45.2844 15.8403 46.0073 15.8589 46.768C15.8941 48.3337 14.5481 49.7065 12.9653 49.7199C12.1964 49.7237 11.4575 49.4223 10.9112 48.8819C10.3648 48.3416 10.0558 47.6068 10.052 46.8388C10.0482 46.071 10.3501 45.3332 10.8911 44.7875C11.4321 44.2419 12.168 43.9332 12.9369 43.9295V43.9308Z" fill="#7C2CFC"/>
<path d="M19.8886 26.5562C19.5062 26.1849 18.9935 25.9781 18.4601 25.9799V25.979C17.9219 25.9816 17.4068 26.1977 17.0281 26.5796C16.6494 26.9616 16.4381 27.478 16.4407 28.0156C16.4434 28.5531 16.6597 29.0675 17.0421 29.4457C17.4246 29.8239 17.9418 30.0349 18.48 30.0323C19.5879 30.0229 20.5301 29.062 20.5056 27.9659C20.4924 27.4334 20.2709 26.9275 19.8886 26.5562Z" fill="#7C2CFC"/>
<path d="M38.9223 46.9816C39.1944 47.0129 39.4529 47.0423 39.6984 47.0703C42.8708 47.4316 43.8897 47.5477 44.2905 48.267C44.7797 49.145 44.0314 50.42 42.2176 50.42C42.2125 50.4202 42.2074 50.4204 42.2023 50.4206C39.5332 50.3177 37.2636 50.3936 37.5532 52.4869C37.7202 53.6941 38.1697 54.4386 38.7067 54.8855C39.2058 55.2782 39.838 55.5107 40.545 55.5107C40.5451 55.5107 40.5453 55.5107 40.5454 55.5107C40.5663 55.5108 40.587 55.5108 40.6076 55.5105C41.4655 55.4991 42.0634 55.1359 42.7206 54.736L42.7229 54.7346C43.0374 54.5434 43.3655 54.344 43.7423 54.1711C44.9528 53.6135 46.1883 53.1262 47.5146 52.9049C48.2177 52.7876 48.9122 52.7286 49.6014 52.7136C49.9998 52.705 50.3965 52.7111 50.792 52.7291C52.4486 52.8045 54.0853 53.0893 55.7492 53.3787L55.7601 53.3806L55.7606 53.3807C56.2575 53.4672 56.7567 53.554 57.2597 53.6357C57.6801 53.704 58.0913 53.7398 58.4943 53.7404C58.5329 53.7404 58.5715 53.7401 58.61 53.7395C59.5776 53.7245 60.4985 53.5029 61.3876 53.0333C62.5471 52.4207 63.2796 51.505 63.4787 50.194C63.6677 48.9498 63.3488 47.783 63.0294 46.6143C62.7952 45.7613 62.8734 44.9427 63.6182 44.3454C64.4854 43.6497 64.0601 42.5293 63.0076 42.1456C63.8679 41.0713 63.9392 40.4651 63.3414 39.5033C62.4417 38.0529 62.5311 37.5082 63.8546 36.4006C64.8863 35.5347 64.914 34.454 63.9195 33.5459C63.5192 33.1815 63.0566 32.888 62.5524 32.6788C61.912 32.4028 61.3152 32.0388 60.7812 31.5981C58.9891 30.158 57.8312 28.3048 57.1326 26.178C56.9675 25.5247 56.3736 23.3295 56.1366 22.7018C54.951 19.5645 52.6696 17.3532 49.6433 15.8555C46.4013 14.2517 42.8908 13.8348 39.3186 13.8194C39.3027 13.8194 39.2868 13.8193 39.2709 13.8193C37.4442 13.8192 35.1039 14.2651 33.0831 14.8572C33.0835 14.8571 33.0838 14.8571 33.0842 14.857C32.1912 15.1187 31.3605 15.4089 30.6641 15.7018C33.2727 15.4171 33.9798 16.283 33.9798 17.9249C33.9798 18.7415 33.4851 19.4811 32.9813 20.2343C32.4585 21.016 31.9257 21.8124 31.9257 22.725C31.9257 24.5171 33.5304 25.9891 35.071 27.0771C35.196 27.1655 35.3232 27.2542 35.4513 27.3436C36.9014 28.3555 38.4729 29.4522 38.4729 30.9812C38.4729 31.954 37.7199 32.1759 37.0943 32.3603C37.0613 32.37 37.0287 32.3796 36.9966 32.3892C36.9255 32.4044 36.8463 32.4204 36.7608 32.4377C35.7662 32.6387 33.9156 33.0127 33.9156 34.3093C33.9156 35.4599 34.7771 36.1095 35.589 36.7217C36.3125 37.2672 36.9966 37.7831 36.9966 38.5974C36.9966 39.6854 35.7128 40.5174 34.8784 40.9654C34.7018 41.0603 34.4187 41.1637 34.0822 41.2867C32.829 41.7446 30.8345 42.4735 30.8345 44.0375C30.8345 46.0215 35.5845 46.5975 38.9223 46.9816Z" fill="url(#paint0_linear_495_6657)"/>
<path fill-rule="evenodd" clip-rule="evenodd" d="M47.5154 52.9049C46.1891 53.1262 44.9536 53.6135 43.7431 54.1711C43.3663 54.344 43.0382 54.5434 42.7238 54.7345L42.7214 54.736C42.0746 55.1295 41.4854 55.4875 40.6492 55.5097C40.6153 55.5106 40.581 55.5109 40.5462 55.5107C39.8393 55.5107 39.2071 55.2782 38.708 54.8855C38.171 54.4386 37.7215 53.6941 37.5545 52.4869C37.2381 50.2 39.9761 50.3209 42.9527 50.4523L42.9529 50.4523C43.4256 50.4732 43.9043 50.4943 44.3777 50.5061C47.8325 50.5923 53.7921 47.4059 53.7921 43.0138C53.7921 40.4326 51.1075 39.2792 48.6131 38.2074C46.863 37.4555 45.2066 36.7438 44.6368 35.6075C43.8375 34.0136 44.6563 33.0534 45.4888 32.0773L45.4888 32.0772C46.0956 31.3657 46.7097 30.6456 46.7097 29.6653C46.7097 27.3401 44.5505 25.5316 40.6638 24.2398C36.7771 22.948 35.4816 22.0007 35.3952 20.7089C35.3583 20.1576 35.9036 19.6376 36.5072 19.062L36.5072 19.062C36.5549 19.0165 36.6024 18.9715 36.6495 18.9269C37.402 18.2145 38.0468 17.604 37.8138 16.489C37.5574 15.2614 36.6047 14.2499 33.0844 14.8572C35.1226 14.26 37.4859 13.8115 39.3194 13.8194C42.8916 13.8348 46.4021 14.2517 49.6441 15.8555C52.6704 17.3532 54.9519 19.5645 56.1374 22.7018C56.3744 23.3295 56.9683 25.5247 57.1334 26.178C57.832 28.3048 58.99 30.158 60.782 31.5981C61.316 32.0388 61.9128 32.4028 62.5532 32.6788C63.0574 32.888 63.52 33.1815 63.9203 33.5459C64.9148 34.454 64.8871 35.5347 63.8554 36.4006C62.5319 37.5082 62.4425 38.0529 63.3422 39.5033C63.94 40.4651 63.8687 41.0713 63.0084 42.1456C64.0609 42.5293 64.4863 43.6497 63.619 44.3454C62.8742 44.9427 62.796 45.7613 63.0302 46.6143L63.0302 46.6144C63.3497 47.7831 63.6685 48.9498 63.4795 50.194C63.2804 51.505 62.5479 52.4207 61.3884 53.0333C60.0952 53.7163 58.7347 53.8749 57.261 53.6357C56.7582 53.554 56.2591 53.4672 55.7625 53.3808L55.7619 53.3807L55.7614 53.3806L55.7505 53.3787C53.0021 52.9006 50.328 52.4354 47.5154 52.9049ZM31.5256 49.7218C32.2875 49.7191 33.02 50.0147 33.5663 50.545C34.1126 51.0755 34.4289 51.7982 34.4477 52.559C34.4829 54.1247 33.1367 55.4973 31.554 55.511C30.7852 55.5147 30.0463 55.2134 29.4999 54.673C28.9535 54.1326 28.6444 53.3978 28.6407 52.6299C28.6368 51.8619 28.9387 51.1242 29.4798 50.5785C30.0209 50.0329 30.7567 49.7242 31.5256 49.7205V49.7218Z" fill="url(#paint1_linear_495_6657)"/>
<defs>
<linearGradient id="paint0_linear_495_6657" x1="53.732" y1="34.6208" x2="29.1327" y2="42.7737" gradientUnits="userSpaceOnUse">
<stop stop-color="#7C2CFC"/>
<stop offset="1" stop-color="#422382"/>
</linearGradient>
<linearGradient id="paint1_linear_495_6657" x1="43.4923" y1="13.9475" x2="50.9212" y2="55.4456" gradientUnits="userSpaceOnUse">
<stop stop-color="#F0CD66"/>
<stop offset="0.120717" stop-color="#F0B742"/>
<stop offset="1" stop-color="#EE5D80"/>
</linearGradient>
</defs>
</svg>
