<svg width="26" height="24" viewBox="0 0 26 24" fill="none" xmlns="http://www.w3.org/2000/svg">
<path d="M23.8907 8.60702C23.2622 8.08581 22.3785 7.62344 21.2644 7.23273C19.048 6.45541 16.1129 6.02734 13 6.02734C9.88713 6.02734 6.95205 6.45541 4.73556 7.23255C3.62148 7.62325 2.73784 8.08567 2.10925 8.60683C1.37322 9.21728 1 9.8935 1 10.6169C1 11.3403 1.37322 12.0165 2.10925 12.6268C2.73784 13.148 3.62148 13.6104 4.73556 14.0011C6.952 14.7784 9.88713 15.2065 13 15.2065C13.6 15.2065 14.1963 15.1898 14.7847 15.158V15.1652L12.982 16.968C12.8716 17.0783 12.8097 17.2279 12.8097 17.3839C12.8097 17.5399 12.8716 17.6895 12.982 17.7999C13.0923 17.9102 13.2419 17.9721 13.3979 17.9721C13.5539 17.9721 13.7035 17.9102 13.8138 17.7999L16.4688 15.145C16.5433 15.0705 16.6025 14.9819 16.6429 14.8845C16.6832 14.7871 16.704 14.6826 16.704 14.5772C16.704 14.4717 16.6832 14.3673 16.6429 14.2698C16.6025 14.1724 16.5433 14.0838 16.4688 14.0093L13.8137 11.3542C13.7034 11.2439 13.5538 11.1819 13.3978 11.1819C13.2418 11.1819 13.0922 11.2439 12.9819 11.3542C12.8715 11.4645 12.8096 11.6142 12.8096 11.7702C12.8096 11.9262 12.8715 12.0758 12.9819 12.1861L14.7785 13.9825C14.1926 14.0154 13.5982 14.0323 13 14.0323C10.016 14.0323 7.21891 13.6277 5.12411 12.8932C3.27695 12.2452 2.17417 11.3943 2.17417 10.6169C2.17417 9.8395 3.27695 8.98858 5.12416 8.34077C7.21895 7.60614 10.016 7.2017 13 7.2017C15.984 7.2017 18.781 7.60628 20.8758 8.34077C22.723 8.98858 23.8258 9.8395 23.8258 10.6169C23.8258 11.4123 22.6825 12.2772 20.7676 12.9306C20.6208 12.9814 20.5002 13.0882 20.4321 13.2277C20.3639 13.3672 20.3538 13.528 20.404 13.6749C20.4541 13.8219 20.5604 13.9429 20.6996 14.0117C20.8388 14.0805 20.9995 14.0913 21.1467 14.0418C22.2945 13.6503 23.2056 13.184 23.8547 12.6563C24.6147 12.0385 25 11.3523 25 10.6169C25 9.8935 24.6268 9.21728 23.8907 8.60702Z" fill="#7C2CFC" stroke="#7C2CFC" stroke-width="0.7"/>
</svg>
