<svg width="48" height="48" viewBox="0 0 48 48" fill="none" xmlns="http://www.w3.org/2000/svg">
<rect width="48" height="48" rx="8" fill="url(#paint0_linear_495_7248)"/>
<rect width="48" height="48" rx="8" fill="#0066FF" style="mix-blend-mode:hue"/>
<path d="M33.6008 32.1091L32.6622 30.7636C30.5937 32.2063 28.1657 32.9689 25.6406 32.9689C18.8558 32.9689 13.3359 27.4491 13.3359 20.6642C13.3359 18.1392 14.0986 15.7112 15.5414 13.6427L14.1957 12.7041C12.56 15.0493 11.6953 17.8019 11.6953 20.6642C11.6953 27.5142 16.6598 33.2265 23.1797 34.3921V36.3596H18.2578V38.0002H33.0234V36.3596H28.1016V34.3921C30.0688 34.0412 31.9373 33.2694 33.6008 32.1091Z" fill="white"/>
<path d="M24.9259 31.3045C24.8553 30.8073 24.8203 30.3059 24.8203 29.8033C24.8203 29.2012 24.5589 28.9168 23.8037 28.184C23.1945 27.5884 23.4127 27.7973 22.8401 27.227L23.4198 26.6467C24.2652 25.8012 24.5753 25.2905 24.1783 24.4964L23.3634 22.8667L19.8191 20.5037C18.7702 19.8048 18.4137 18.4102 19.007 17.3296C19.2936 16.809 19.0114 16.1609 18.4361 16.0177L16.3191 15.4883C15.4638 17.0223 14.9766 18.7876 14.9766 20.6645C14.9766 26.3044 19.3778 30.9359 24.9259 31.3045Z" fill="white"/>
<path d="M20.4451 18.1195C20.258 18.4596 20.3827 18.9075 20.7289 19.1383L22.4789 20.3048C22.3843 18.7429 23.3069 17.6486 24.4214 17.0766C24.8912 16.8359 24.7982 16.2393 24.8201 15.7422C24.8201 14.3854 25.9242 13.2812 27.281 13.2812C27.9203 13.2812 29.0753 13.2107 29.0906 12.5692V10.5726C28.0084 10.2018 26.8473 10 25.6404 10C22.2618 10 19.2447 11.5799 17.2891 14.0392L18.834 14.4253C20.4511 14.83 21.2501 16.6533 20.4451 18.1195ZM26.4607 29.8029C26.4607 30.3 26.5017 30.7971 26.5827 31.2871C28.9895 31.0749 31.1693 30.0605 32.852 28.5134C31.7856 27.7696 30.8948 26.8623 30.4655 26.3953C29.1393 26.2958 27.9701 25.5165 27.3674 24.3123C27.0016 23.58 26.2655 23.125 25.4468 23.125H25.327L25.6459 23.7621C26.3995 25.2693 25.7798 26.4341 25.1449 27.1998C25.8701 27.9118 26.4607 28.5855 26.4607 29.8029Z" fill="white"/>
<path d="M29.9695 21.6493C29.4423 20.3751 29.7945 18.6317 30.4633 17.9634C30.8216 17.6052 32.6591 15.3499 33.8534 13.8689C32.9888 12.8261 31.9295 11.9494 30.7319 11.2959V12.5914C30.7198 13.2789 30.43 13.8564 29.8935 14.2616C29.3045 14.7062 28.4503 14.9222 27.2816 14.9222C26.8294 14.9222 26.4613 15.2903 26.4613 15.7425C26.4668 16.9675 26.2989 17.9585 25.1707 18.5371C24.0365 19.1184 23.8134 20.1104 24.5079 21.4847H25.4474C26.8917 21.4847 28.19 22.287 28.8359 23.5787C29.2017 24.311 29.9378 24.766 30.7565 24.766H31.2191L31.4641 25.0509C32.0684 25.7509 33.0298 26.6675 33.9825 27.3013C34.8805 26.1753 35.5553 24.8639 35.9398 23.4343C34.1126 23.2391 32.5021 23.1254 32.2035 23.1254C31.1726 23.1254 30.3583 22.5872 29.9695 21.6493Z" fill="white"/>
<path d="M34.8343 15.2646C33.7679 16.5837 32.0397 18.7061 31.623 19.1229C31.4338 19.3334 31.1954 20.3714 31.4972 21.0495C31.635 21.3585 31.8396 21.4843 32.2032 21.4843C32.6161 21.4843 34.335 21.6073 36.243 21.8151C36.284 21.4367 36.3048 21.0528 36.3048 20.6639C36.3048 18.6952 35.7683 16.8495 34.8343 15.2646Z" fill="white"/>
<defs>
<linearGradient id="paint0_linear_495_7248" x1="0" y1="0" x2="48" y2="48" gradientUnits="userSpaceOnUse">
<stop stop-color="#FFA161"/>
<stop offset="1" stop-color="#F260A7"/>
</linearGradient>
</defs>
</svg>
