<svg width="22" height="22" viewBox="0 0 22 22" fill="none" xmlns="http://www.w3.org/2000/svg">
<path fill-rule="evenodd" clip-rule="evenodd" d="M1.5 10.75C1.48966 8.29675 2.45429 5.93986 4.18169 4.19784C5.90908 2.45581 8.25775 1.47134 10.711 1.461C13.1643 1.45066 15.5211 2.41529 17.2632 4.14268C19.0052 5.87008 19.9897 8.21875 20 10.672C20.0009 10.7705 20.0211 10.8679 20.0596 10.9585C20.0981 11.0492 20.154 11.1314 20.2243 11.2004C20.2945 11.2695 20.3777 11.324 20.469 11.3609C20.5603 11.3978 20.658 11.4164 20.7565 11.4155C20.855 11.4146 20.9524 11.3944 21.043 11.3559C21.1337 11.3174 21.2159 11.2615 21.2849 11.1912C21.354 11.121 21.4085 11.0378 21.4454 10.9465C21.4823 10.8552 21.5009 10.7575 21.5 10.659C21.45 4.764 16.657 0 10.75 0C4.813 0 0 4.813 0 10.75C0 16.657 4.764 21.45 10.66 21.5C10.8589 21.5016 11.0503 21.4241 11.1921 21.2846C11.3339 21.145 11.4144 20.9549 11.416 20.756C11.4176 20.5571 11.3401 20.3657 11.2006 20.2239C11.061 20.0821 10.8709 20.0016 10.672 20C8.23229 19.9794 5.89951 18.9958 4.18163 17.2633C2.46375 15.5308 1.49991 13.1898 1.5 10.75ZM10.75 6.5C9.76309 6.49964 8.80681 6.84275 8.04525 7.47047C7.2837 8.0982 6.76434 8.97139 6.5763 9.94022C6.38825 10.9091 6.54325 11.9131 7.01468 12.7802C7.48612 13.6472 8.24461 14.3231 9.16 14.692C9.34446 14.7667 9.4917 14.9115 9.56934 15.0948C9.64698 15.278 9.64866 15.4845 9.574 15.669C9.49934 15.8535 9.35447 16.0007 9.17124 16.0783C8.98802 16.156 8.78146 16.1577 8.597 16.083C7.36067 15.5821 6.33689 14.667 5.7009 13.4944C5.06491 12.3218 4.85624 10.9646 5.11062 9.65511C5.36501 8.34562 6.06662 7.16527 7.09537 6.31607C8.12412 5.46687 9.41604 5.00164 10.75 5C11.8961 5.00001 13.0161 5.34242 13.9663 5.98331C14.9165 6.6242 15.6536 7.53435 16.083 8.597C16.1234 8.6889 16.145 8.78798 16.1464 8.88837C16.1479 8.98876 16.1291 9.08841 16.0913 9.18142C16.0535 9.27443 15.9974 9.35891 15.9263 9.42984C15.8553 9.50076 15.7707 9.5567 15.6776 9.59434C15.5845 9.63197 15.4849 9.65053 15.3845 9.64892C15.2841 9.64731 15.185 9.62556 15.0932 9.58496C15.0014 9.54437 14.9187 9.48574 14.8499 9.41257C14.7812 9.3394 14.7278 9.25318 14.693 9.159C14.3755 8.37334 13.8306 7.70046 13.128 7.22669C12.4255 6.75292 11.5974 6.49986 10.75 6.5ZM13.42 20.011L10.807 12.174C10.7434 11.9837 10.734 11.7794 10.78 11.5841C10.826 11.3887 10.9255 11.2101 11.0673 11.0681C11.2091 10.9262 11.3877 10.8265 11.583 10.7804C11.7783 10.7343 11.9826 10.7435 12.173 10.807L20.011 13.42C20.996 13.748 20.996 15.141 20.011 15.47L17.117 16.434C16.958 16.487 16.8134 16.5763 16.6949 16.6949C16.5763 16.8134 16.487 16.958 16.434 17.117L15.469 20.011C15.141 20.996 13.749 20.996 13.419 20.011H13.42Z" fill="#7C2CFC"/>
</svg>
