<svg width="48" height="48" viewBox="0 0 48 48" fill="none" xmlns="http://www.w3.org/2000/svg">
<rect width="48" height="48" rx="8" fill="#F2F3F4"/>
<rect width="48" height="48" rx="8" fill="url(#paint0_linear_427_19490)"/>
<rect width="48" height="48" rx="8" fill="white" fill-opacity="0.07"/>
<g clip-path="url(#clip0_427_19490)">
<path d="M35.4844 10C34.1252 10 33.0234 11.1018 33.0234 12.4609V14.9219H37.1797C37.6327 14.9219 38 14.5546 38 14.1016V12.4609C38 11.1018 36.8435 10 35.4844 10ZM10 35.5391C10 36.8982 11.1018 38 12.4609 38H25.6616C25.1411 37.3124 24.8203 36.4659 24.8203 35.5391C24.8203 34.6122 25.1411 33.7658 25.6616 33.0781H12.4609C11.1018 33.0781 10 34.1799 10 35.5391Z" fill="white"/>
<path d="M13.2812 19.0234V31.4375H28.9219C29.3813 31.4375 29.7422 31.7984 29.7422 32.2578C29.7422 32.7171 29.3813 33.0781 28.9219 33.0781C27.5601 33.0781 26.4609 34.1773 26.4609 35.5391C26.4609 36.9007 27.5601 38 28.9219 38C30.2836 38 31.3828 36.9007 31.3828 35.5391V27.2812C31.3828 27.1289 31.3404 26.9796 31.2603 26.85C31.1802 26.7204 31.0656 26.6156 30.9294 26.5475L29.183 25.6743L30.9029 24.8892C31.046 24.8238 31.1674 24.7187 31.2524 24.5863C31.3375 24.454 31.3827 24.3 31.3828 24.1426V12.4609C31.3828 11.5341 31.7035 10.6876 32.224 10H16.5625C14.7528 10 13.2812 11.4716 13.2812 13.2812V15.7422C13.2812 15.9601 13.3678 16.1684 13.5216 16.3221L15.4025 18.2031H14.1016C13.6481 18.2031 13.2812 18.57 13.2812 19.0234ZM18.2031 13.2812H26.4609C26.9144 13.2812 27.2812 13.6481 27.2812 14.1016C27.2812 14.555 26.9144 14.9219 26.4609 14.9219H18.2031C17.7497 14.9219 17.3828 14.555 17.3828 14.1016C17.3828 13.6481 17.7497 13.2812 18.2031 13.2812ZM18.2031 19.8984H26.4609C26.9144 19.8984 27.2812 20.2653 27.2812 20.7188C27.2812 21.1722 26.9144 21.5391 26.4609 21.5391H18.2031C17.7497 21.5391 17.3828 21.1722 17.3828 20.7188C17.3828 20.2653 17.7497 19.8984 18.2031 19.8984ZM18.2031 26.4609H26.4609C26.9144 26.4609 27.2812 26.8278 27.2812 27.2812C27.2812 27.7347 26.9144 28.1016 26.4609 28.1016H18.2031C17.7497 28.1016 17.3828 27.7347 17.3828 27.2812C17.3828 26.8278 17.7497 26.4609 18.2031 26.4609Z" fill="white"/>
</g>
<defs>
<linearGradient id="paint0_linear_427_19490" x1="0" y1="0" x2="48" y2="48" gradientUnits="userSpaceOnUse">
<stop stop-color="#FFA161"/>
<stop offset="1" stop-color="#F260A7"/>
</linearGradient>
<clipPath id="clip0_427_19490">
<rect width="28" height="28" fill="white" transform="translate(10 10)"/>
</clipPath>
</defs>
</svg>
