<svg width="215" height="115" viewBox="0 0 215 115" fill="none" xmlns="http://www.w3.org/2000/svg">
<g clip-path="url(#clip0_384_22623)">
<path d="M0.297852 106.985H11.1505C16.6869 106.985 19.8768 104.12 19.8768 99.5252C19.8768 96.4007 18.4469 94.2688 15.6238 93.3498C18.1536 92.2838 19.4734 90.1518 19.4734 87.1744C19.4734 82.6899 16.247 79.4551 10.9672 79.4551H0.297852V106.985ZM10.5639 84.0867C13.204 84.0867 14.6703 85.3365 14.6703 87.6522C14.6703 90.0415 13.2405 91.4016 10.6738 91.4016H4.99101V84.0867H10.5639ZM10.9672 95.3715C13.5704 95.3715 15.0736 96.6581 15.0736 98.9371C15.0736 101.363 13.6073 102.65 10.9672 102.65H4.99101V95.3715H10.9672Z" fill="#422382"/>
<path d="M28.0301 106.985V79.4551H23.5938V106.985H28.0301Z" fill="#422382"/>
<path d="M31.6592 97.4283C31.6592 103.089 35.7288 106.985 41.3385 106.985C46.9482 106.985 51.0182 103.089 51.0182 97.4283C51.0182 91.7675 46.9482 87.8711 41.3385 87.8711C35.7288 87.8711 31.6592 91.7675 31.6592 97.4283ZM36.1321 97.4283C36.1321 94.12 38.2589 91.8778 41.3385 91.8778C44.4184 91.8778 46.5449 94.12 46.5449 97.4283C46.5449 100.737 44.4184 102.979 41.3385 102.979C38.2589 102.979 36.1321 100.737 36.1321 97.4283Z" fill="#422382"/>
<path d="M53.501 97.4283C53.501 103.089 57.5709 106.985 63.1806 106.985C68.7904 106.985 72.86 103.089 72.86 97.4283C72.86 91.7675 68.7904 87.8711 63.1806 87.8711C57.5709 87.8711 53.501 91.7675 53.501 97.4283ZM57.9742 97.4283C57.9742 94.12 60.1007 91.8778 63.1806 91.8778C66.2606 91.8778 68.3871 94.12 68.3871 97.4283C68.3871 100.737 66.2606 102.979 63.1806 102.979C60.1007 102.979 57.9742 100.737 57.9742 97.4283Z" fill="#422382"/>
<path d="M80.8469 106.884V96.4099C80.8469 93.4692 82.5701 92.0724 84.6966 92.0724C86.8234 92.0724 88.1798 93.4325 88.1798 95.9688V106.884H92.6531V96.4099C92.6531 93.4325 94.3028 92.0356 96.4662 92.0356C98.5927 92.0356 99.986 93.3957 99.986 96.0056V106.884H104.422V94.8293C104.422 90.6388 102.002 87.9922 97.6027 87.9922C94.853 87.9922 92.7265 89.3523 91.8096 91.4475C90.8565 89.3523 88.9499 87.9922 86.1998 87.9922C83.597 87.9922 81.7635 89.1685 80.8469 90.6756L80.4801 88.5436H76.374V106.884H80.8469Z" fill="#422382"/>
<path d="M107.929 97.6856C107.929 103.273 111.339 106.985 116.362 106.985C120.395 106.985 123.548 104.596 124.391 100.957H121.825C121.128 103.236 119.002 104.706 116.362 104.706C112.768 104.706 110.422 101.876 110.422 97.6488C110.422 93.2745 112.952 90.5176 116.545 90.5176C119.002 90.5176 121.128 91.8777 121.788 94.3405H124.318C123.621 90.6647 120.615 88.2754 116.508 88.2754C111.339 88.2754 107.929 92.0983 107.929 97.6856Z" fill="#7C2CFC"/>
<path d="M126.977 97.6488C126.977 103.052 130.79 106.985 135.996 106.985C141.203 106.985 145.016 103.052 145.016 97.6488C145.016 92.2086 141.203 88.2754 135.996 88.2754C130.79 88.2754 126.977 92.2086 126.977 97.6488ZM129.543 97.6121C129.543 93.4951 132.183 90.5544 135.996 90.5544C139.772 90.5544 142.449 93.4951 142.449 97.6121C142.449 101.803 139.772 104.706 135.996 104.706C132.183 104.706 129.543 101.803 129.543 97.6121Z" fill="#7C2CFC"/>
<path d="M156.028 106.985C158.998 106.985 161.492 105.662 162.738 102.905L162.995 106.985H165.239V79.4551H162.665V92.1349C161.418 89.5619 159.072 88.2753 156.138 88.2753C150.859 88.2753 147.815 92.3187 147.815 97.6855C147.815 103.015 150.859 106.985 156.028 106.985ZM156.469 104.67C152.619 104.67 150.382 101.729 150.382 97.612C150.382 93.5318 152.619 90.5543 156.469 90.5543C160.355 90.5543 162.628 93.5318 162.628 97.612C162.628 101.729 160.355 104.67 156.469 104.67Z" fill="#7C2CFC"/>
<path d="M171.721 84.124C172.747 84.124 173.627 83.2785 173.627 82.2493C173.627 81.2201 172.747 80.3379 171.721 80.3379C170.694 80.3379 169.851 81.2201 169.851 82.2493C169.851 83.2785 170.694 84.124 171.721 84.124ZM170.474 106.986H173.004V88.8647H170.474V106.986Z" fill="#7C2CFC"/>
<path d="M180.809 106.984V97.5023C180.809 93.4956 182.862 90.849 186.492 90.849C189.425 90.849 191.295 92.3193 191.295 96.473V106.984H193.825V95.9217C193.825 91.4371 191.809 88.5332 186.932 88.5332C184.366 88.5332 182.019 89.8197 180.846 92.0988L180.479 88.8629H178.279V106.984H180.809Z" fill="#7C2CFC"/>
<path d="M197.657 97.392C197.657 102.244 200.737 106.251 205.797 106.251C208.84 106.251 211.297 104.78 212.506 102.281V106.508C212.506 110.221 210.087 112.684 206.457 112.684C203.267 112.684 201.067 110.993 200.517 108.125H197.987C198.684 112.426 201.874 114.999 206.42 114.999C211.626 114.999 215 111.544 215 106.251V88.8629H212.8L212.543 92.5766C211.406 89.9668 209.06 88.5332 205.98 88.5332C200.774 88.5332 197.657 92.5399 197.657 97.392ZM200.187 97.3552C200.187 93.7529 202.387 90.7755 206.2 90.7755C210.087 90.7755 212.287 93.5691 212.287 97.3552C212.287 101.178 210.013 103.972 206.164 103.972C202.424 103.972 200.187 100.994 200.187 97.3552Z" fill="#7C2CFC"/>
<path d="M110.937 66.2244C111.233 66.7425 111.581 67.1482 111.956 67.4631C112.76 68.1028 113.779 68.4814 114.918 68.4814C114.974 68.4817 115.029 68.4812 115.084 68.4797C116.432 68.4436 117.381 67.8606 118.424 67.2196L118.427 67.2173C118.929 66.9092 119.452 66.5879 120.052 66.3083C120.058 66.3055 120.064 66.3026 120.071 66.2996C122.022 65.3914 124.013 64.5978 126.15 64.2375C126.832 64.1225 127.508 64.0419 128.181 63.9907C130.304 63.8289 132.388 63.9592 134.471 64.2211C136.116 64.428 137.761 64.7171 139.422 65.0091H139.422L139.437 65.0118L139.438 65.0119L139.439 65.012L139.439 65.0122L139.44 65.0124C140.241 65.1531 141.045 65.2945 141.856 65.4277C141.93 65.4398 142.004 65.4513 142.077 65.4622C143.185 65.6258 144.254 65.6456 145.291 65.5003C146.397 65.3454 147.466 65.0028 148.508 64.4466C150.377 63.4489 151.557 61.9574 151.878 59.8223C152.183 57.7959 151.669 55.8956 151.154 53.9922C150.777 52.6029 150.903 51.2697 152.103 50.2969C153.501 49.1638 152.815 47.339 151.119 46.7141C152.506 44.9644 152.621 43.9771 151.657 42.4107C150.207 40.0485 150.351 39.1612 152.484 37.3574C154.147 35.9472 154.191 34.1871 152.589 32.7081C151.944 32.1146 151.198 31.6365 150.385 31.2959C149.353 30.8463 148.392 30.2535 147.531 29.5358C144.643 27.1903 142.777 24.1721 141.651 20.7082C141.385 19.6442 140.428 16.069 140.046 15.0466C138.135 9.93704 134.458 6.33552 129.581 3.89632C124.356 1.28427 118.698 0.605257 112.941 0.580245C112.916 0.580135 112.891 0.58008 112.865 0.580078C109.921 0.57984 106.149 1.30602 102.892 2.27041L102.893 2.27022C100.819 2.8843 98.9543 3.59498 97.6445 4.27622C95.8123 5.22916 94.1298 6.64142 92.9452 8.62328C92.0311 10.1511 92.4548 11.4252 95.8407 12.0846C97.6027 12.3683 97.6027 13.3114 95.7308 14.2544C94.7419 14.7526 93.8987 14.958 93.2625 15.113C93.1418 15.1424 93.0282 15.1701 92.9228 15.1975C92.6745 15.2629 92.4433 15.3226 92.2257 15.3787L92.2247 15.379L92.2029 15.3846C90.3929 15.8516 89.5322 16.0737 87.7079 17.2462C86.5483 17.9923 85.4958 18.835 85.0639 20.2304C84.7746 21.1594 84.8312 22.0232 85.5083 22.7881C86.1856 23.5531 87.1144 23.5783 88.0244 23.3324C88.9255 23.0594 89.7631 22.6086 90.488 22.0063C92.2261 20.6508 94.1466 19.7051 96.3586 19.4949C97.4509 19.3919 98.4385 19.7092 99.0842 20.6887C99.4009 21.1324 99.5862 21.6568 99.6186 22.2013C99.6514 22.7461 99.53 23.289 99.2687 23.7675C98.4028 25.493 96.8429 26.1739 95.0754 26.5437C94.4468 26.6748 93.805 26.7109 93.1634 26.7469L93.1628 26.7469C92.2725 26.797 91.3827 26.8469 90.5299 27.1511C89.3976 27.5546 88.4249 28.1158 88.1564 29.3999C87.9531 30.3707 88.4541 31.1715 88.9448 31.9322C90.0434 33.6388 91.5929 34.8976 93.2514 36.0116C94.1649 36.6004 94.9835 37.3254 95.6793 38.1615C96.4907 39.1723 96.6207 40.1833 96.0504 41.0638C95.4801 41.9443 94.3521 42.3499 93.1738 42.0495C92.3936 41.8521 91.6552 41.5161 90.9932 41.0575C89.5696 40.0632 89.0998 39.1182 88.5746 38.0618L88.5743 38.0612C88.1914 37.2913 87.7792 36.4621 86.9467 35.5116C84.3048 32.4958 82.0567 30.4969 77.9473 30.2866C74.9831 30.135 73.7021 31.8428 73.2673 33.5874C73.1469 34.071 73.0651 34.532 72.9878 34.9682C72.7861 36.1059 72.6143 37.0746 71.8634 37.8312C70.8198 38.8828 67.966 39.1526 65.854 39.3524C65.1248 39.4213 64.4838 39.482 64.0365 39.5635C62.2935 39.8812 61.0996 40.6605 61.0996 42.5466C61.0996 43.913 62.7313 45.1207 63.248 45.5031L63.2985 45.5405C66.1583 47.6422 69.253 47.7367 72.4482 46.5914C74.7918 45.7165 77.2891 45.3317 79.7866 45.4607C81.6107 45.5721 83.2607 46.1563 84.546 47.5497C85.6781 48.7729 85.6593 50.3806 84.3573 51.4125C82.9818 52.5032 81.102 52.8679 79.3512 52.9205C78.7488 52.9205 77.9033 52.9278 77.495 53.5855C76.9771 54.4199 77.3913 55.533 77.7571 55.9582C79.3945 57.8623 82.0573 58.8018 84.3489 58.5789C87.3031 58.2827 90.1315 57.3915 92.9452 56.4774L93.135 56.4117L93.4423 56.3048C95.2089 55.6893 96.588 55.2088 98.5388 55.2782C102.352 55.2873 108.007 60.5 110.652 65.6519C110.734 65.8429 110.823 66.0216 110.917 66.1889C110.922 66.1997 110.932 66.2135 110.937 66.2244C110.938 66.2253 110.935 66.2234 110.937 66.2244Z" fill="#7C2CFC"/>
<path d="M70.4284 49.6215C71.6562 49.6172 72.8369 50.0986 73.7173 50.9623C74.5976 51.8262 75.1076 53.0035 75.1377 54.2424C75.1944 56.7924 73.0251 59.0282 70.4742 59.0501C69.235 59.0563 68.0442 58.5654 67.1637 57.6853C66.2832 56.8053 65.7851 55.6086 65.7791 54.3578C65.773 53.1072 66.2594 51.9056 67.1313 51.0169C68.0033 50.1282 69.1893 49.6255 70.4284 49.6194V49.6215Z" fill="#7C2CFC"/>
<path d="M81.632 21.3241C81.0156 20.7194 80.1894 20.3826 79.3298 20.3856V20.3841C78.4623 20.3884 77.6322 20.7403 77.0219 21.3623C76.4116 21.9844 76.0711 22.8255 76.0753 23.701C76.0796 24.5764 76.4282 25.4142 77.0445 26.0303C77.6609 26.6461 78.4945 26.9898 79.3618 26.9856C81.1473 26.9702 82.6658 25.4052 82.6264 23.62C82.605 22.7529 82.248 21.9289 81.632 21.3241Z" fill="#7C2CFC"/>
<path d="M112.303 54.5902C112.742 54.6412 113.158 54.6892 113.554 54.7347C118.667 55.3232 120.309 55.5122 120.955 56.6839C121.743 58.1137 120.537 60.1904 117.614 60.1904C117.606 60.1907 117.598 60.191 117.589 60.1913C113.288 60.0236 109.63 60.1472 110.097 63.5566C110.366 65.5228 111.09 66.7352 111.956 67.4631C112.76 68.1028 113.779 68.4814 114.918 68.4814C114.919 68.4814 114.919 68.4814 114.919 68.4814C114.953 68.4816 114.986 68.4815 115.019 68.481C116.402 68.4625 117.366 67.8709 118.425 67.2196L118.428 67.2173C118.935 66.906 119.464 66.5812 120.071 66.2996C122.022 65.3914 124.013 64.5978 126.151 64.2374C127.284 64.0463 128.403 63.9502 129.514 63.9259C130.156 63.9118 130.795 63.9217 131.433 63.951C134.103 64.0739 136.74 64.5377 139.422 65.0091L139.44 65.0122L139.44 65.0124C140.241 65.1531 141.046 65.2945 141.856 65.4277C142.534 65.5388 143.196 65.5972 143.846 65.5981C143.908 65.5982 143.97 65.5977 144.032 65.5967C145.592 65.5723 147.076 65.2113 148.509 64.4466C150.378 63.4488 151.558 61.9574 151.879 59.8223C152.184 57.7959 151.67 55.8956 151.155 53.9922C150.777 52.6029 150.903 51.2697 152.104 50.2969C153.501 49.1638 152.816 47.339 151.12 46.7141C152.506 44.9644 152.621 43.9771 151.658 42.4107C150.208 40.0485 150.352 39.1612 152.485 37.3574C154.148 35.9472 154.192 34.1871 152.589 32.7081C151.944 32.1145 151.199 31.6365 150.386 31.2959C149.354 30.8463 148.392 30.2535 147.532 29.5358C144.643 27.1903 142.777 24.1721 141.651 20.7082C141.385 19.6442 140.428 16.069 140.046 15.0466C138.136 9.93704 134.459 6.33552 129.582 3.89632C124.357 1.28427 118.699 0.605257 112.942 0.580245C112.916 0.580134 112.891 0.580078 112.865 0.580078C109.921 0.57992 106.149 1.30607 102.893 2.27041C102.893 2.27031 102.894 2.27021 102.895 2.2701C101.455 2.69624 100.117 3.1689 98.9941 3.64596C103.198 3.1823 104.338 4.5926 104.338 7.26674C104.338 8.59672 103.541 9.80118 102.729 11.028C101.886 12.301 101.028 13.5982 101.028 15.0845C101.028 18.0031 103.614 20.4006 106.096 22.1726C106.298 22.3164 106.503 22.461 106.709 22.6065C109.046 24.2547 111.579 26.0408 111.579 28.5311C111.579 30.1154 110.365 30.4768 109.357 30.7771C109.304 30.7929 109.252 30.8086 109.2 30.8242C109.085 30.849 108.958 30.875 108.82 30.9032C107.217 31.2305 104.234 31.8396 104.234 33.9513C104.234 35.8254 105.623 36.8833 106.931 37.8804C108.097 38.7689 109.2 39.609 109.2 40.9352C109.2 42.7072 107.131 44.0623 105.786 44.792C105.501 44.9464 105.045 45.1149 104.503 45.3152C102.483 46.061 99.2689 47.2481 99.2689 49.7953C99.2689 53.0267 106.924 53.9648 112.303 54.5902Z" fill="url(#paint0_linear_384_22623)"/>
<path fill-rule="evenodd" clip-rule="evenodd" d="M126.149 64.2374C124.012 64.5978 122.021 65.3914 120.07 66.2996C119.463 66.5812 118.934 66.906 118.427 67.2173L118.423 67.2196C117.381 67.8606 116.431 68.4436 115.084 68.4797C115.029 68.4812 114.974 68.4817 114.918 68.4814C113.778 68.4814 112.76 68.1028 111.955 67.4631C111.09 66.7352 110.365 65.5228 110.096 63.5566C109.586 59.8319 113.999 60.0289 118.796 60.243C119.558 60.277 120.33 60.3114 121.093 60.3306C126.661 60.4709 136.265 55.2813 136.265 48.128C136.265 43.9242 131.939 42.0456 127.919 40.3001C125.098 39.0755 122.429 37.9164 121.51 36.0657C120.222 33.4697 121.542 31.906 122.883 30.3161L122.883 30.3161C123.861 29.1572 124.851 27.9844 124.851 26.3878C124.851 22.6008 121.371 19.6554 115.107 17.5515C108.843 15.4476 106.755 13.9047 106.616 11.8008C106.557 10.9029 107.436 10.0561 108.408 9.11862L108.408 9.11861C108.485 9.04448 108.562 8.97125 108.638 8.89866C109.85 7.73835 110.89 6.74406 110.514 4.92812C110.101 2.92878 108.565 1.28138 102.892 2.27041C106.177 1.29774 109.986 0.567389 112.941 0.580245C118.698 0.605257 124.355 1.28427 129.58 3.89632C134.457 6.33552 138.134 9.93704 140.045 15.0466C140.427 16.069 141.384 19.6442 141.65 20.7082C142.776 24.1721 144.642 27.1903 147.53 29.5358C148.391 30.2535 149.353 30.8463 150.385 31.2959C151.197 31.6365 151.943 32.1145 152.588 32.7081C154.191 34.1871 154.146 35.9472 152.483 37.3574C150.35 39.1612 150.206 40.0485 151.656 42.4107C152.62 43.9771 152.505 44.9644 151.118 46.7141C152.815 47.339 153.5 49.1638 152.102 50.2969C150.902 51.2697 150.776 52.6029 151.154 53.9922L151.154 53.9924C151.668 55.8958 152.182 57.7959 151.878 59.8223C151.557 61.9574 150.376 63.4488 148.508 64.4466C146.423 65.5589 144.231 65.8171 141.856 65.4277C141.045 65.2945 140.24 65.1531 139.44 65.0124L139.439 65.0122L139.421 65.0091C134.992 64.2304 130.682 63.4727 126.149 64.2374ZM100.381 59.0528C101.609 59.0484 102.789 59.5298 103.67 60.3935C104.55 61.2574 105.06 62.4346 105.09 63.6737C105.147 66.2237 102.977 68.4592 100.427 68.4815C99.1876 68.4876 97.9968 67.9968 97.1163 67.1166C96.2357 66.2366 95.7376 65.0398 95.7315 63.789C95.7253 62.5384 96.2119 61.3369 97.0839 60.448C97.9559 59.5594 99.1417 59.0568 100.381 59.0507V59.0528Z" fill="url(#paint1_linear_384_22623)"/>
</g>
<defs>
<linearGradient id="paint0_linear_384_22623" x1="136.171" y1="34.4588" x2="96.4443" y2="47.4874" gradientUnits="userSpaceOnUse">
<stop stop-color="#7C2CFC"/>
<stop offset="1" stop-color="#422382"/>
</linearGradient>
<linearGradient id="paint1_linear_384_22623" x1="119.666" y1="0.788834" x2="131.885" y2="68.3303" gradientUnits="userSpaceOnUse">
<stop stop-color="#F0CD66"/>
<stop offset="0.120717" stop-color="#F0B742"/>
<stop offset="1" stop-color="#EE5D80"/>
</linearGradient>
<clipPath id="clip0_384_22623">
<rect width="215" height="115" fill="white"/>
</clipPath>
</defs>
</svg>
