<svg width="280" height="149" viewBox="0 0 280 149" fill="none" xmlns="http://www.w3.org/2000/svg">
<g clip-path="url(#clip0_695_9170)">
<path d="M1.23291 138.615H15.3162C22.5005 138.615 26.6399 134.903 26.6399 128.949C26.6399 124.901 24.7845 122.139 21.121 120.948C24.4038 119.567 26.1166 116.805 26.1166 112.947C26.1166 107.136 21.9297 102.945 15.0782 102.945H1.23291V138.615ZM14.5548 108.946C17.9808 108.946 19.8837 110.566 19.8837 113.566C19.8837 116.662 18.0282 118.424 14.6975 118.424H7.3231V108.946H14.5548ZM15.0782 123.568C18.4563 123.568 20.4071 125.234 20.4071 128.187C20.4071 131.331 18.5042 132.997 15.0782 132.997H7.3231V123.568H15.0782Z" fill="white"/>
<path d="M37.2198 138.615V102.945H31.4629V138.615H37.2198Z" fill="white"/>
<path d="M41.9297 126.232C41.9297 133.567 47.2107 138.615 54.4903 138.615C61.7699 138.615 67.0513 133.567 67.0513 126.232C67.0513 118.898 61.7699 113.85 54.4903 113.85C47.2107 113.85 41.9297 118.898 41.9297 126.232ZM47.734 126.232C47.734 121.946 50.494 119.041 54.4903 119.041C58.487 119.041 61.2465 121.946 61.2465 126.232C61.2465 130.519 58.487 133.424 54.4903 133.424C50.494 133.424 47.734 130.519 47.734 126.232Z" fill="white"/>
<path d="M70.272 126.232C70.272 133.567 75.5534 138.615 82.833 138.615C90.1126 138.615 95.3936 133.567 95.3936 126.232C95.3936 118.898 90.1126 113.85 82.833 113.85C75.5534 113.85 70.272 118.898 70.272 126.232ZM76.0768 126.232C76.0768 121.946 78.8363 119.041 82.833 119.041C86.8298 119.041 89.5893 121.946 89.5893 126.232C89.5893 130.519 86.8298 133.424 82.833 133.424C78.8363 133.424 76.0768 130.519 76.0768 126.232Z" fill="white"/>
<path d="M105.758 138.485V124.914C105.758 121.104 107.995 119.294 110.754 119.294C113.514 119.294 115.274 121.057 115.274 124.343V138.485H121.079V124.914C121.079 121.057 123.22 119.247 126.027 119.247C128.787 119.247 130.595 121.009 130.595 124.39V138.485H136.352V122.866C136.352 117.437 133.212 114.008 127.502 114.008C123.934 114.008 121.174 115.77 119.984 118.485C118.748 115.77 116.273 114.008 112.705 114.008C109.327 114.008 106.948 115.532 105.758 117.485L105.283 114.722H99.9541V138.485H105.758Z" fill="white"/>
<path d="M140.901 126.566C140.901 133.806 145.326 138.616 151.844 138.616C157.078 138.616 161.17 135.52 162.264 130.805H158.934C158.03 133.758 155.27 135.663 151.844 135.663C147.182 135.663 144.137 131.996 144.137 126.519C144.137 120.851 147.42 117.279 152.082 117.279C155.27 117.279 158.03 119.041 158.886 122.232H162.169C161.265 117.47 157.364 114.374 152.035 114.374C145.326 114.374 140.901 119.327 140.901 126.566Z" fill="white"/>
<path d="M165.62 126.519C165.62 133.52 170.568 138.616 177.325 138.616C184.081 138.616 189.029 133.52 189.029 126.519C189.029 119.47 184.081 114.374 177.325 114.374C170.568 114.374 165.62 119.47 165.62 126.519ZM168.95 126.471C168.95 121.137 172.376 117.327 177.325 117.327C182.225 117.327 185.698 121.137 185.698 126.471C185.698 131.9 182.225 135.663 177.325 135.663C172.376 135.663 168.95 131.9 168.95 126.471Z" fill="white"/>
<path d="M203.319 138.615C207.173 138.615 210.409 136.9 212.026 133.328L212.36 138.615H215.272V102.945H211.931V119.374C210.314 116.04 207.269 114.373 203.462 114.373C196.611 114.373 192.662 119.612 192.662 126.566C192.662 133.471 196.611 138.615 203.319 138.615ZM203.891 135.615C198.895 135.615 195.992 131.804 195.992 126.47C195.992 121.184 198.895 117.326 203.891 117.326C208.934 117.326 211.884 121.184 211.884 126.47C211.884 131.804 208.934 135.615 203.891 135.615Z" fill="white"/>
<path d="M223.683 108.994C225.015 108.994 226.157 107.899 226.157 106.565C226.157 105.232 225.015 104.089 223.683 104.089C222.351 104.089 221.256 105.232 221.256 106.565C221.256 107.899 222.351 108.994 223.683 108.994ZM222.066 138.615H225.348V115.137H222.066V138.615Z" fill="white"/>
<path d="M235.477 138.615V126.33C235.477 121.139 238.142 117.709 242.852 117.709C246.658 117.709 249.085 119.614 249.085 124.996V138.615H252.368V124.282C252.368 118.471 249.751 114.709 243.423 114.709C240.093 114.709 237.047 116.376 235.525 119.329L235.049 115.136H232.194V138.615H235.477Z" fill="white"/>
<path d="M257.341 126.187C257.341 132.474 261.338 137.665 267.903 137.665C271.853 137.665 275.04 135.76 276.61 132.521V137.998C276.61 142.809 273.47 145.999 268.76 145.999C264.62 145.999 261.766 143.809 261.052 140.094H257.769C258.673 145.666 262.812 149 268.712 149C275.468 149 279.846 144.523 279.846 137.665V115.136H276.991L276.658 119.948C275.183 116.566 272.138 114.709 268.141 114.709C261.385 114.709 257.341 119.9 257.341 126.187ZM260.624 126.139C260.624 121.472 263.478 117.614 268.427 117.614C273.47 117.614 276.325 121.234 276.325 126.139C276.325 131.092 273.375 134.712 268.379 134.712C263.526 134.712 260.624 130.854 260.624 126.139Z" fill="white"/>
<path d="M144.805 85.8051C145.19 86.4765 145.641 87.002 146.127 87.4101C147.171 88.2388 148.493 88.7294 149.972 88.7294C150.044 88.7299 150.116 88.7291 150.187 88.7272C151.936 88.6805 153.168 87.9251 154.521 87.0946L154.526 87.0916C155.177 86.6924 155.855 86.2761 156.633 85.9138C156.641 85.9102 156.65 85.9065 156.658 85.9026C159.19 84.7259 161.773 83.6977 164.547 83.2307C165.432 83.0818 166.309 82.9774 167.182 82.911C169.937 82.7014 172.642 82.8703 175.345 83.2096C177.48 83.4777 179.614 83.8522 181.769 84.2306L181.789 84.234L181.79 84.2342L181.791 84.2343L181.792 84.2346L181.793 84.2348C182.832 84.4171 183.876 84.6004 184.928 84.7729C185.024 84.7886 185.12 84.8035 185.215 84.8176C186.654 85.0295 188.04 85.0552 189.386 84.8669C190.821 84.6662 192.208 84.2224 193.561 83.5017C195.986 82.209 197.518 80.2766 197.934 77.5103C198.329 74.8848 197.662 72.4226 196.994 69.9564C196.504 68.1564 196.668 66.429 198.226 65.1686C200.039 63.7005 199.15 61.3362 196.949 60.5266C198.748 58.2596 198.897 56.9803 197.647 54.9509C195.765 51.8903 195.952 50.7407 198.72 48.4035C200.878 46.5764 200.936 44.2959 198.856 42.3797C198.019 41.6106 197.051 40.9912 195.997 40.5499C194.657 39.9675 193.409 39.1994 192.293 38.2694C188.545 35.2306 186.123 31.3199 184.662 26.8319C184.317 25.4534 183.075 20.8211 182.579 19.4965C180.1 12.8763 175.328 8.20998 168.999 5.04963C162.219 1.66532 154.877 0.785553 147.406 0.753146C147.374 0.753004 147.341 0.752932 147.308 0.75293C143.487 0.752622 138.593 1.69349 134.366 2.94301L134.368 2.94277C131.676 3.7384 129.256 4.6592 127.556 5.54185C125.179 6.77653 122.995 8.60632 121.458 11.1741C120.272 13.1536 120.822 14.8044 125.215 15.6588C127.502 16.0263 127.502 17.2483 125.073 18.4702C123.79 19.1156 122.695 19.3818 121.87 19.5826C121.713 19.6206 121.566 19.6565 121.429 19.692C121.107 19.7767 120.807 19.8541 120.524 19.9268L120.523 19.9272L120.495 19.9345C118.146 20.5395 117.029 20.8272 114.662 22.3465C113.157 23.3131 111.791 24.405 111.231 26.213C110.855 27.4166 110.929 28.5358 111.807 29.5268C112.686 30.518 113.892 30.5507 115.072 30.2321C116.242 29.8784 117.329 29.2943 118.269 28.5138C120.525 26.7576 123.017 25.5323 125.888 25.2599C127.305 25.1265 128.586 25.5377 129.424 26.8067C129.835 27.3816 130.076 28.061 130.118 28.7665C130.16 29.4724 130.003 30.1758 129.664 30.7958C128.54 33.0314 126.516 33.9136 124.222 34.3928C123.407 34.5626 122.574 34.6094 121.741 34.656L121.74 34.6561C120.585 34.7209 119.43 34.7857 118.324 35.1797C116.854 35.7025 115.592 36.4296 115.244 38.0934C114.98 39.3512 115.63 40.3888 116.267 41.3744C117.692 43.5855 119.703 45.2166 121.855 46.6598C123.041 47.4228 124.103 48.3621 125.006 49.4453C126.059 50.7551 126.228 52.0649 125.488 53.2057C124.748 54.3466 123.284 54.8721 121.755 54.4829C120.742 54.2271 119.784 53.7918 118.925 53.1976C117.078 51.9093 116.468 50.6849 115.786 49.3163L115.786 49.3154C115.289 48.3179 114.754 47.2436 113.674 46.012C110.246 42.1046 107.328 39.5147 101.996 39.2423C98.1491 39.0458 96.4867 41.2585 95.9226 43.5189C95.7662 44.1455 95.6601 44.7428 95.5598 45.308C95.2981 46.7821 95.0752 48.0371 94.1007 49.0175C92.7464 50.3799 89.0432 50.7296 86.3024 50.9884C85.3562 51.0777 84.5245 51.1563 83.944 51.2619C81.6821 51.6735 80.1328 52.6832 80.1328 55.1269C80.1328 56.8973 82.2502 58.462 82.9208 58.9576L82.9862 59.006C86.6974 61.7291 90.7133 61.8516 94.8596 60.3676C97.9008 59.234 101.142 58.7354 104.382 58.9026C106.75 59.0469 108.891 59.8038 110.559 61.6092C112.028 63.1941 112.003 65.2771 110.314 66.6141C108.529 68.0272 106.089 68.4998 103.817 68.568C103.036 68.568 101.938 68.5773 101.409 69.4296C100.737 70.5106 101.274 71.9528 101.749 72.5037C103.874 74.9708 107.329 76.1881 110.303 75.8993C114.136 75.5154 117.807 74.3608 121.458 73.1765L121.704 73.0913L122.103 72.9527C124.396 72.1553 126.185 71.5328 128.717 71.6226C133.664 71.6344 141.003 78.3883 144.436 85.0633C144.542 85.3108 144.657 85.5424 144.779 85.7591C144.786 85.7732 144.799 85.791 144.805 85.8051C144.807 85.8063 144.803 85.8039 144.805 85.8051Z" fill="white"/>
<path d="M92.2385 64.2936C93.8319 64.288 95.364 64.9117 96.5064 66.0308C97.6488 67.1501 98.3106 68.6754 98.3496 70.2807C98.4232 73.5846 95.6082 76.4814 92.298 76.5098C90.6899 76.5178 89.1447 75.8818 88.002 74.7414C86.8595 73.6013 86.2131 72.0508 86.2052 70.4301C86.1973 68.8098 86.8286 67.253 87.96 66.1015C89.0915 64.9501 90.6306 64.2987 92.2385 64.2908V64.2936Z" fill="white"/>
<path d="M106.777 27.63C105.977 26.8465 104.905 26.4101 103.79 26.414V26.412C102.664 26.4176 101.587 26.8736 100.795 27.6794C100.003 28.4855 99.5609 29.5752 99.5663 30.7096C99.5719 31.8438 100.024 32.9293 100.824 33.7275C101.624 34.5254 102.706 34.9708 103.831 34.9653C106.148 34.9454 108.119 32.9177 108.068 30.6047C108.04 29.4811 107.577 28.4135 106.777 27.63Z" fill="white"/>
<path d="M131.107 76.5132C132.7 76.5076 134.232 77.1313 135.375 78.2503C136.517 79.3697 137.179 80.8949 137.218 82.5003C137.292 85.8042 134.476 88.7007 131.166 88.7296C129.558 88.7374 128.013 88.1015 126.871 86.9612C125.728 85.8209 125.081 84.2703 125.074 82.6498C125.066 81.0293 125.697 79.4726 126.828 78.321C127.96 77.1696 129.499 76.5184 131.107 76.5105V76.5132Z" fill="white"/>
</g>
<defs>
<clipPath id="clip0_695_9170">
<rect width="279" height="149" fill="white" transform="translate(0.845703)"/>
</clipPath>
</defs>
</svg>
