<svg width="58" height="43" viewBox="0 0 58 43" fill="none" xmlns="http://www.w3.org/2000/svg">
<path d="M31.072 41.1249C31.2558 41.4431 31.4718 41.6921 31.7041 41.8855C32.2032 42.2782 32.8354 42.5107 33.5424 42.5107C33.5771 42.5109 33.6114 42.5106 33.6453 42.5097C34.4815 42.4875 35.0708 42.1295 35.7175 41.736L35.7199 41.7345C36.0311 41.5454 36.3557 41.3481 36.7276 41.1764C36.7315 41.1747 36.7355 41.173 36.7395 41.1711C37.95 40.6135 39.1855 40.1262 40.5118 39.9049C40.9346 39.8344 41.3543 39.7849 41.7716 39.7534C43.0891 39.6541 44.3825 39.7341 45.6748 39.8949C46.6957 40.022 47.7159 40.1994 48.7466 40.3787H48.7469L48.7563 40.3804L48.7567 40.3805L48.7572 40.3805L48.7575 40.3806L48.758 40.3807C49.2549 40.4672 49.7541 40.554 50.2571 40.6358C50.303 40.6432 50.3487 40.6503 50.3944 40.6569C51.0821 40.7574 51.7452 40.7695 52.3885 40.6803C53.0746 40.5852 53.7381 40.3749 54.3848 40.0333C55.5443 39.4207 56.2768 38.505 56.476 37.194C56.6649 35.9498 56.346 34.783 56.0266 33.6143C55.7924 32.7613 55.8706 31.9427 56.6154 31.3454C57.4827 30.6497 57.0573 29.5293 56.0048 29.1456C56.8651 28.0713 56.9365 27.4651 56.3386 26.5033C55.4389 25.0529 55.5283 24.5082 56.8518 23.4006C57.8835 22.5347 57.9112 21.454 56.9168 20.5459C56.5164 20.1815 56.0538 19.888 55.5496 19.6788C54.9092 19.4028 54.3124 19.0388 53.7784 18.5981C51.9864 17.158 50.8285 15.3048 50.1298 13.178C49.9647 12.5247 49.3708 10.3295 49.1338 9.70176C47.9483 6.56451 45.6668 4.35318 42.6405 2.85551C39.3985 1.25171 35.888 0.834796 32.3158 0.819439C32.3001 0.819371 32.2843 0.819337 32.2686 0.819336C30.4418 0.81919 28.1014 1.26506 26.0805 1.8572L26.0812 1.85708C24.7943 2.23413 23.637 2.67049 22.8242 3.08877C21.6874 3.67387 20.6434 4.541 19.9084 5.75786C19.3412 6.69592 19.6041 7.47824 21.705 7.88312C22.7983 8.05727 22.7983 8.63636 21.6368 9.21539C21.0232 9.52127 20.5 9.6474 20.1053 9.74255C20.0304 9.7606 19.9599 9.77759 19.8945 9.79443C19.7404 9.83458 19.597 9.87122 19.462 9.9057L19.4613 9.90587L19.4478 9.90932C18.3247 10.1961 17.7907 10.3324 16.6586 11.0523C15.9391 11.5104 15.2861 12.0279 15.0181 12.8847C14.8386 13.455 14.8737 13.9854 15.2939 14.4551C15.7141 14.9248 16.2904 14.9403 16.855 14.7893C17.4142 14.6217 17.9339 14.3449 18.3837 13.975C19.4622 13.1428 20.6538 12.5621 22.0264 12.433C22.7041 12.3698 23.3169 12.5646 23.7176 13.166C23.9141 13.4385 24.0291 13.7604 24.0492 14.0948C24.0695 14.4293 23.9942 14.7626 23.8321 15.0564C23.2948 16.1158 22.3269 16.5339 21.2302 16.761C20.8401 16.8415 20.4419 16.8637 20.0438 16.8858L20.0434 16.8858C19.491 16.9165 18.9389 16.9472 18.4097 17.1339C17.7072 17.3817 17.1035 17.7262 16.937 18.5147C16.8108 19.1108 17.1217 19.6025 17.4262 20.0696C18.1079 21.1174 19.0693 21.8903 20.0984 22.5743C20.6652 22.9358 21.1732 23.381 21.6049 23.8943C22.1083 24.515 22.189 25.1357 21.8352 25.6763C21.4813 26.217 20.7813 26.466 20.0502 26.2816C19.5661 26.1604 19.1079 25.9541 18.6972 25.6725C17.8138 25.062 17.5223 24.4817 17.1964 23.8331L17.1963 23.8327C16.9587 23.36 16.7029 22.8509 16.1863 22.2673C14.5471 20.4156 13.1521 19.1882 10.6023 19.0591C8.76305 18.9661 7.96817 20.0146 7.69842 21.0858C7.62367 21.3827 7.57294 21.6658 7.52497 21.9336C7.39981 22.6322 7.29323 23.227 6.8273 23.6915C6.17972 24.3372 4.409 24.5029 3.09849 24.6255C2.64603 24.6679 2.24833 24.7051 1.97076 24.7551C0.889248 24.9502 0.148437 25.4287 0.148437 26.5868C0.148437 27.4257 1.16087 28.1672 1.48152 28.4021L1.51282 28.425C3.28733 29.7155 5.20755 29.7735 7.19016 29.0702C8.64433 28.5331 10.1939 28.2968 11.7436 28.376C12.8754 28.4444 13.8992 28.8031 14.6968 29.6587C15.3992 30.4097 15.3876 31.3968 14.5796 32.0304C13.7262 32.7001 12.5598 32.9241 11.4734 32.9564C11.0996 32.9564 10.575 32.9608 10.3216 33.3647C10.0003 33.8769 10.2573 34.5604 10.4843 34.8215C11.5003 35.9906 13.1525 36.5675 14.5744 36.4306C16.4075 36.2487 18.1625 35.7016 19.9084 35.1403L20.0261 35.1L20.2169 35.0343C21.313 34.6564 22.1687 34.3614 23.3792 34.4039C25.7449 34.4095 29.254 37.6101 30.8952 40.7734C30.9463 40.8907 31.0013 41.0004 31.0595 41.1031C31.0627 41.1098 31.0688 41.1182 31.072 41.1249C31.073 41.1255 31.071 41.1243 31.072 41.1249Z" fill="#7C2CFC"/>
<path d="M5.93687 30.9308C6.69874 30.9281 7.43134 31.2237 7.9776 31.754C8.52382 32.2844 8.84026 33.0073 8.85894 33.768C8.89413 35.3337 7.54809 36.7065 5.9653 36.7199C5.19641 36.7237 4.45752 36.4223 3.91117 35.8819C3.36483 35.3416 3.05578 34.6068 3.05201 33.8388C3.04824 33.071 3.35007 32.3332 3.89108 31.7875C4.4321 31.2419 5.16801 30.9332 5.93687 30.9295V30.9308Z" fill="#7C2CFC"/>
<path d="M12.8886 13.5562C12.5062 13.1849 11.9935 12.9781 11.4601 12.9799V12.979C10.9219 12.9816 10.4068 13.1977 10.0281 13.5796C9.64941 13.9616 9.43811 14.478 9.44072 15.0156C9.44338 15.5531 9.65973 16.0675 10.0421 16.4457C10.4246 16.8239 10.9418 17.0349 11.48 17.0323C12.5879 17.0229 13.5301 16.062 13.5056 14.9659C13.4924 14.4334 13.2709 13.9275 12.8886 13.5562Z" fill="#7C2CFC"/>
<path d="M31.9223 33.9816C32.1944 34.0129 32.4529 34.0423 32.6984 34.0703C35.8708 34.4316 36.8897 34.5477 37.2905 35.267C37.7797 36.145 37.0314 37.42 35.2176 37.42C35.2125 37.4202 35.2074 37.4204 35.2023 37.4206C32.5332 37.3177 30.2636 37.3936 30.5532 39.4869C30.7202 40.6941 31.1697 41.4386 31.7067 41.8855C32.2058 42.2782 32.838 42.5107 33.545 42.5107C33.5451 42.5107 33.5453 42.5107 33.5454 42.5107C33.5663 42.5108 33.587 42.5108 33.6076 42.5105C34.4655 42.4991 35.0634 42.1359 35.7206 41.736L35.7229 41.7346C36.0374 41.5434 36.3655 41.344 36.7423 41.1711C37.9528 40.6135 39.1883 40.1262 40.5146 39.9049C41.2177 39.7876 41.9122 39.7286 42.6014 39.7136C42.9998 39.705 43.3965 39.7111 43.792 39.7291C45.4486 39.8045 47.0853 40.0893 48.7492 40.3787L48.7601 40.3806L48.7606 40.3807C49.2575 40.4672 49.7567 40.554 50.2597 40.6357C50.6801 40.704 51.0913 40.7398 51.4943 40.7404C51.5329 40.7404 51.5715 40.7401 51.61 40.7395C52.5776 40.7245 53.4985 40.5029 54.3876 40.0333C55.5471 39.4207 56.2796 38.505 56.4787 37.194C56.6677 35.9498 56.3488 34.783 56.0294 33.6143C55.7952 32.7613 55.8734 31.9427 56.6182 31.3454C57.4854 30.6497 57.0601 29.5293 56.0076 29.1456C56.8679 28.0713 56.9392 27.4651 56.3414 26.5033C55.4417 25.0529 55.5311 24.5082 56.8546 23.4006C57.8863 22.5347 57.914 21.454 56.9195 20.5459C56.5192 20.1815 56.0566 19.888 55.5524 19.6788C54.912 19.4028 54.3152 19.0388 53.7812 18.5981C51.9891 17.158 50.8312 15.3048 50.1326 13.178C49.9675 12.5247 49.3736 10.3295 49.1366 9.70176C47.951 6.56451 45.6696 4.35318 42.6433 2.85551C39.4013 1.25171 35.8908 0.834796 32.3186 0.819439C32.3027 0.81937 32.2868 0.819336 32.2709 0.819336C30.4442 0.819239 28.1039 1.26509 26.0831 1.8572C26.0835 1.85714 26.0838 1.85707 26.0842 1.85701C25.1912 2.11866 24.3605 2.40887 23.6641 2.70179C26.2727 2.4171 26.9798 3.28302 26.9798 4.92494C26.9798 5.74155 26.4851 6.48109 25.9813 7.23433C25.4585 8.016 24.9257 8.81243 24.9257 9.72505C24.9257 11.5171 26.5304 12.9891 28.071 14.0771C28.196 14.1655 28.3232 14.2542 28.4513 14.3436C29.9014 15.3555 31.4729 16.4522 31.4729 17.9812C31.4729 18.954 30.7199 19.1759 30.0943 19.3603C30.0613 19.37 30.0287 19.3796 29.9966 19.3892C29.9255 19.4044 29.8463 19.4204 29.7608 19.4377C28.7662 19.6387 26.9156 20.0127 26.9156 21.3093C26.9156 22.4599 27.7771 23.1095 28.589 23.7217C29.3125 24.2672 29.9966 24.7831 29.9966 25.5974C29.9966 26.6854 28.7128 27.5174 27.8784 27.9654C27.7018 28.0603 27.4187 28.1637 27.0822 28.2867C25.829 28.7446 23.8345 29.4735 23.8345 31.0375C23.8345 33.0215 28.5845 33.5975 31.9223 33.9816Z" fill="url(#paint0_linear_639_9048)"/>
<path fill-rule="evenodd" clip-rule="evenodd" d="M40.5154 39.9049C39.1891 40.1262 37.9536 40.6135 36.7431 41.1711C36.3663 41.344 36.0382 41.5434 35.7238 41.7345L35.7214 41.736C35.0746 42.1295 34.4854 42.4875 33.6492 42.5097C33.6153 42.5106 33.581 42.5109 33.5462 42.5107C32.8393 42.5107 32.2071 42.2782 31.708 41.8855C31.171 41.4386 30.7215 40.6941 30.5545 39.4869C30.2381 37.2 32.9761 37.3209 35.9527 37.4523L35.9529 37.4523C36.4256 37.4732 36.9043 37.4943 37.3777 37.5061C40.8325 37.5923 46.7921 34.4059 46.7921 30.0138C46.7921 27.4326 44.1075 26.2792 41.6131 25.2074C39.863 24.4555 38.2066 23.7438 37.6368 22.6075C36.8375 21.0136 37.6563 20.0534 38.4888 19.0773L38.4888 19.0772C39.0956 18.3657 39.7097 17.6456 39.7097 16.6653C39.7097 14.3401 37.5505 12.5316 33.6638 11.2398C29.7771 9.94798 28.4816 9.00067 28.3952 7.70888C28.3583 7.15755 28.9036 6.6376 29.5072 6.062L29.5072 6.06199C29.5549 6.01648 29.6024 5.97151 29.6495 5.92694C30.402 5.21451 31.0468 4.60402 30.8138 3.48903C30.5574 2.26144 29.6047 1.24993 26.0844 1.8572C28.1226 1.25998 30.4859 0.811545 32.3194 0.819439C35.8916 0.834796 39.4021 1.25171 42.6441 2.85551C45.6704 4.35318 47.9519 6.56451 49.1374 9.70176C49.3744 10.3295 49.9683 12.5247 50.1334 13.178C50.832 15.3048 51.99 17.158 53.782 18.5981C54.316 19.0388 54.9128 19.4028 55.5532 19.6788C56.0574 19.888 56.52 20.1815 56.9203 20.5459C57.9148 21.454 57.8871 22.5347 56.8554 23.4006C55.5319 24.5082 55.4425 25.0529 56.3422 26.5033C56.94 27.4651 56.8687 28.0713 56.0084 29.1456C57.0609 29.5293 57.4863 30.6497 56.619 31.3454C55.8742 31.9427 55.796 32.7613 56.0302 33.6143L56.0302 33.6144C56.3497 34.7831 56.6685 35.9498 56.4795 37.194C56.2804 38.505 55.5479 39.4207 54.3884 40.0333C53.0952 40.7163 51.7347 40.8749 50.261 40.6357C49.7582 40.554 49.2591 40.4672 48.7625 40.3808L48.7619 40.3807L48.7614 40.3806L48.7505 40.3787C46.0021 39.9006 43.328 39.4354 40.5154 39.9049ZM24.5256 36.7218C25.2875 36.7191 26.02 37.0147 26.5663 37.545C27.1126 38.0755 27.4289 38.7982 27.4477 39.559C27.4829 41.1247 26.1367 42.4973 24.554 42.511C23.7852 42.5147 23.0463 42.2134 22.4999 41.673C21.9535 41.1326 21.6444 40.3978 21.6407 39.6299C21.6368 38.8619 21.9387 38.1242 22.4798 37.5785C23.0209 37.0329 23.7567 36.7242 24.5256 36.7205V36.7218Z" fill="url(#paint1_linear_639_9048)"/>
<defs>
<linearGradient id="paint0_linear_639_9048" x1="46.732" y1="21.6208" x2="22.1327" y2="29.7737" gradientUnits="userSpaceOnUse">
<stop stop-color="#7C2CFC"/>
<stop offset="1" stop-color="#422382"/>
</linearGradient>
<linearGradient id="paint1_linear_639_9048" x1="36.4923" y1="0.947513" x2="43.9212" y2="42.4456" gradientUnits="userSpaceOnUse">
<stop stop-color="#F0CD66"/>
<stop offset="0.120717" stop-color="#F0B742"/>
<stop offset="1" stop-color="#EE5D80"/>
</linearGradient>
</defs>
</svg>
