<svg width="165" height="27" viewBox="0 0 165 27" fill="none" xmlns="http://www.w3.org/2000/svg">
<path d="M30.5156 22.0318H37.3135C40.7814 22.0318 42.7795 20.2558 42.7795 17.4078C42.7795 15.4711 41.8838 14.1497 40.1155 13.5801C41.7001 12.9194 42.5268 11.5979 42.5268 9.75239C42.5268 6.97277 40.5059 4.96777 37.1987 4.96777L30.5156 4.96777L30.5156 22.0318ZM36.946 7.83854C38.5998 7.83854 39.5183 8.61321 39.5183 10.0486C39.5183 11.5295 38.6226 12.3725 37.0149 12.3725H33.4553V7.83854L36.946 7.83854ZM37.1987 14.8332C38.8293 14.8332 39.7709 15.6306 39.7709 17.0432C39.7709 18.547 38.8524 19.3444 37.1987 19.3444H33.4553V14.8332L37.1987 14.8332Z" fill="white"/>
<path d="M47.8863 22.0318V4.96777H45.1074V22.0318H47.8863Z" fill="white"/>
<path d="M50.1582 16.1084C50.1582 19.6171 52.7073 22.0321 56.2211 22.0321C59.735 22.0321 62.2843 19.6171 62.2843 16.1084C62.2843 12.5996 59.735 10.1846 56.2211 10.1846C52.7073 10.1846 50.1582 12.5996 50.1582 16.1084ZM52.9599 16.1084C52.9599 14.0578 54.2921 12.668 56.2211 12.668C58.1504 12.668 59.4823 14.0578 59.4823 16.1084C59.4823 18.1589 58.1504 19.5487 56.2211 19.5487C54.2921 19.5487 52.9599 18.1589 52.9599 16.1084Z" fill="white"/>
<path d="M63.8398 16.1084C63.8398 19.6171 66.3892 22.0321 69.903 22.0321C73.4168 22.0321 75.9659 19.6171 75.9659 16.1084C75.9659 12.5996 73.4168 10.1846 69.903 10.1846C66.3892 10.1846 63.8398 12.5996 63.8398 16.1084ZM66.6418 16.1084C66.6418 14.0578 67.9738 12.668 69.903 12.668C71.8322 12.668 73.1642 14.0578 73.1642 16.1084C73.1642 18.1589 71.8322 19.5487 69.903 19.5487C67.9738 19.5487 66.6418 18.1589 66.6418 16.1084Z" fill="white"/>
<path d="M80.9697 21.9695V15.4773C80.9697 13.6546 82.0491 12.7888 83.3811 12.7888C84.7133 12.7888 85.5629 13.6318 85.5629 15.2039V21.9695H88.3648V15.4773C88.3648 13.6318 89.3982 12.766 90.7533 12.766C92.0853 12.766 92.958 13.609 92.958 15.2267V21.9695H95.7369V14.4976C95.7369 11.9002 94.2211 10.2598 91.4652 10.2598C89.7428 10.2598 88.4108 11.1028 87.8365 12.4014C87.2395 11.1028 86.0452 10.2598 84.3227 10.2598C82.6923 10.2598 81.5438 10.9889 80.9697 11.923L80.74 10.6015H78.168V21.9695H80.9697Z" fill="white"/>
<path d="M97.9316 16.2682C97.9316 19.7314 100.067 22.0325 103.214 22.0325C105.74 22.0325 107.715 20.5516 108.243 18.296H106.636C106.2 19.7086 104.868 20.6199 103.214 20.6199C100.963 20.6199 99.4934 18.8656 99.4934 16.2454C99.4934 13.5342 101.078 11.8254 103.329 11.8254C104.868 11.8254 106.2 12.6684 106.613 14.1949H108.198C107.761 11.9165 105.878 10.4355 103.306 10.4355C100.067 10.4355 97.9316 12.8051 97.9316 16.2682Z" fill="white"/>
<path d="M109.863 16.2455C109.863 19.5947 112.252 22.0325 115.513 22.0325C118.774 22.0325 121.163 19.5947 121.163 16.2455C121.163 12.8734 118.774 10.4355 115.513 10.4355C112.252 10.4355 109.863 12.8734 109.863 16.2455ZM111.471 16.2227C111.471 13.6709 113.124 11.8481 115.513 11.8481C117.878 11.8481 119.555 13.6709 119.555 16.2227C119.555 18.82 117.878 20.6199 115.513 20.6199C113.124 20.6199 111.471 18.82 111.471 16.2227Z" fill="white"/>
<path d="M128.062 22.0318C129.923 22.0318 131.484 21.2116 132.265 19.5028L132.426 22.0318H133.832V4.96777L132.219 4.96777V12.8271C131.438 11.2322 129.969 10.4348 128.131 10.4348C124.824 10.4348 122.918 12.941 122.918 16.2674C122.918 19.5711 124.824 22.0318 128.062 22.0318ZM128.338 20.5964C125.927 20.5964 124.526 18.7737 124.526 16.2219C124.526 13.6929 125.927 11.8474 128.338 11.8474C130.772 11.8474 132.196 13.6929 132.196 16.2219C132.196 18.7737 130.772 20.5964 128.338 20.5964Z" fill="white"/>
<path d="M137.892 7.86138C138.535 7.86138 139.086 7.33734 139.086 6.69941C139.086 6.06145 138.535 5.51465 137.892 5.51465C137.249 5.51465 136.721 6.06145 136.721 6.69941C136.721 7.33734 137.249 7.86138 137.892 7.86138ZM137.111 22.0318H138.696V10.7998H137.111V22.0318Z" fill="white"/>
<path d="M143.585 22.0321V16.155C143.585 13.6715 144.871 12.0311 147.144 12.0311C148.982 12.0311 150.153 12.9424 150.153 15.517V22.0321H151.738V15.1753C151.738 12.3956 150.475 10.5957 147.42 10.5957C145.812 10.5957 144.342 11.3931 143.608 12.8057L143.378 10.8001H142V22.0321H143.585Z" fill="white"/>
<path d="M154.137 16.0866C154.137 19.0941 156.066 21.5775 159.235 21.5775C161.141 21.5775 162.68 20.6662 163.438 19.1169V21.737C163.438 24.0383 161.922 25.5647 159.649 25.5647C157.651 25.5647 156.273 24.5167 155.928 22.7395H154.343C154.78 25.4051 156.778 27.0001 159.626 27.0001C162.887 27.0001 165 24.8584 165 21.5775V10.8001H163.622L163.461 13.1019C162.749 11.4843 161.279 10.5957 159.35 10.5957C156.089 10.5957 154.137 13.0791 154.137 16.0866ZM155.721 16.0638C155.721 13.831 157.099 11.9855 159.488 11.9855C161.922 11.9855 163.3 13.7171 163.3 16.0638C163.3 18.4333 161.876 20.1649 159.465 20.1649C157.122 20.1649 155.721 18.3194 155.721 16.0638Z" fill="white"/>
<path d="M12.8168 21.5657C12.893 21.6976 12.9825 21.8008 13.0788 21.881C13.2857 22.0437 13.5477 22.1401 13.8407 22.1401C13.8551 22.1402 13.8693 22.14 13.8834 22.1397C14.23 22.1305 14.4742 21.9821 14.7422 21.819L14.7432 21.8184C14.8722 21.74 15.0068 21.6582 15.1609 21.5871C15.1625 21.5864 15.1642 21.5856 15.1658 21.5849C15.6676 21.3538 16.1796 21.1518 16.7293 21.0601C16.9046 21.0308 17.0785 21.0103 17.2515 20.9973C17.7975 20.9561 18.3336 20.9893 18.8692 21.0559C19.2924 21.1086 19.7152 21.1822 20.1424 21.2565L20.1464 21.2571L20.1468 21.2572C20.3527 21.293 20.56 21.3291 20.7684 21.363C20.7875 21.3661 20.8064 21.369 20.8253 21.3718C21.1104 21.4134 21.3852 21.4184 21.6518 21.3815C21.9362 21.342 22.2112 21.2549 22.4792 21.1133C22.9598 20.8594 23.2634 20.4799 23.346 19.9365C23.4243 19.4208 23.2921 18.9372 23.1597 18.4528C23.0626 18.0993 23.0951 17.76 23.4038 17.5124C23.7632 17.2241 23.5869 16.7597 23.1507 16.6007C23.5073 16.1554 23.5368 15.9042 23.289 15.5055C22.9161 14.9044 22.9532 14.6786 23.5017 14.2196C23.9294 13.8607 23.9408 13.4128 23.5287 13.0364C23.3627 12.8853 23.171 12.7637 22.962 12.677C22.6966 12.5626 22.4492 12.4118 22.2279 12.2291C21.4852 11.6322 21.0053 10.8641 20.7157 9.98261C20.6472 9.71185 20.4011 8.80201 20.3029 8.54183C19.8115 7.24154 18.8659 6.32502 17.6116 5.70428C16.2679 5.03956 14.8129 4.86676 13.3323 4.86039C13.3258 4.86037 13.3193 4.86035 13.3128 4.86035C12.5556 4.86029 11.5856 5.04509 10.748 5.29051C10.2146 5.44679 9.73524 5.62759 9.3984 5.80096C8.9272 6.04347 8.49453 6.40286 8.18987 6.90721C7.95479 7.29601 8.06375 7.62025 8.93453 7.78806C9.38765 7.86024 9.38765 8.10026 8.90624 8.34025C8.65194 8.46703 8.43508 8.5193 8.27147 8.55874C8.24042 8.56622 8.21121 8.57326 8.18412 8.58024C8.12026 8.59688 8.06079 8.61207 8.00484 8.62636L7.99898 8.62786C7.53348 8.7467 7.31214 8.80321 6.84296 9.10161C6.54475 9.29147 6.27407 9.50593 6.163 9.86104C6.08859 10.0974 6.10316 10.3173 6.27729 10.5119C6.45148 10.7066 6.69033 10.713 6.92435 10.6504C7.1561 10.581 7.37152 10.4662 7.55793 10.313C8.00492 9.96802 8.49883 9.72735 9.06771 9.67385C9.34862 9.64765 9.60259 9.7284 9.76865 9.97765C9.85009 10.0906 9.89776 10.224 9.9061 10.3626C9.91453 10.5012 9.8833 10.6394 9.81611 10.7612C9.59341 11.2003 9.19225 11.3735 8.73771 11.4677C8.57603 11.501 8.41099 11.5102 8.24599 11.5194C8.01702 11.5321 7.78804 11.5448 7.56872 11.6222C7.27753 11.7249 7.02735 11.8677 6.95831 12.1945C6.90602 12.4416 7.03488 12.6454 7.16107 12.839C7.44361 13.2732 7.84208 13.5936 8.2686 13.8771C8.50353 14.0269 8.71407 14.2114 8.893 14.4242C9.10167 14.6814 9.1351 14.9387 8.98845 15.1628C8.84179 15.3869 8.55168 15.4901 8.24866 15.4136C8.04802 15.3634 7.8581 15.2779 7.68787 15.1612C7.32175 14.9081 7.20092 14.6677 7.06586 14.3988C6.9674 14.2029 6.8613 13.9917 6.64719 13.7498C5.96779 12.9824 5.38962 12.4737 4.33279 12.4202C3.57048 12.3816 3.24103 12.8162 3.12923 13.2602C3.09825 13.3832 3.07722 13.5005 3.05734 13.6116C3.00546 13.9011 2.96129 14.1476 2.76817 14.3401C2.49978 14.6077 1.76587 14.6764 1.2227 14.7273C1.03517 14.7448 0.870339 14.7602 0.755297 14.781C0.307042 14.8618 0 15.0601 0 15.5401C0 15.8878 0.419623 16.1952 0.552521 16.2925L0.565495 16.302C1.30097 16.8369 2.09684 16.8609 2.91857 16.5695C3.52128 16.3468 4.16353 16.2489 4.80582 16.2817C5.27492 16.3101 5.69926 16.4587 6.02981 16.8133C6.32096 17.1246 6.31613 17.5337 5.98127 17.7964C5.62754 18.0739 5.1441 18.1667 4.69384 18.1801C4.53892 18.1801 4.32147 18.182 4.21646 18.3494C4.08328 18.5617 4.18981 18.845 4.28387 18.9532C4.70498 19.4377 5.38977 19.6768 5.97911 19.6201C6.73887 19.5447 7.46625 19.3179 8.18987 19.0853L8.23868 19.0686L8.31772 19.0414C8.77204 18.8847 9.12669 18.7625 9.62841 18.7801C10.6089 18.7824 12.0633 20.109 12.7436 21.42C12.7647 21.4686 12.7875 21.5141 12.8117 21.5567C12.813 21.5595 12.8155 21.563 12.8168 21.5657Z" fill="white"/>
<path d="M2.39912 17.3406C2.71489 17.3395 3.01853 17.462 3.24494 17.6818C3.47133 17.9016 3.60248 18.2012 3.61023 18.5165C3.62481 19.1655 3.06692 19.7344 2.4109 19.74C2.09222 19.7416 1.78598 19.6167 1.55953 19.3927C1.33309 19.1687 1.205 18.8642 1.20344 18.5459C1.20187 18.2276 1.32697 17.9218 1.55121 17.6957C1.77544 17.4695 2.08045 17.3416 2.39912 17.34V17.3406Z" fill="white"/>
<path d="M5.2804 10.1394C5.12188 9.98548 4.9094 9.89976 4.68833 9.90053V9.90013C4.46525 9.90123 4.25175 9.9908 4.0948 10.1491C3.93785 10.3074 3.85027 10.5214 3.85135 10.7442C3.85246 10.967 3.94213 11.1802 4.10062 11.337C4.25914 11.4937 4.47352 11.5812 4.69658 11.5801C5.15575 11.5762 5.54628 11.1779 5.53613 10.7236C5.53064 10.503 5.43883 10.2933 5.2804 10.1394Z" fill="white"/>
<path d="M10.102 19.7408C10.4178 19.7396 10.7214 19.8622 10.9478 20.0819C11.1743 20.3018 11.3054 20.6014 11.3131 20.9167C11.3277 21.5656 10.7698 22.1345 10.1138 22.1402C9.79515 22.1417 9.48891 22.0169 9.26246 21.7929C9.03598 21.5689 8.90789 21.2644 8.90633 20.9461C8.90474 20.6278 9.02987 20.322 9.25412 20.0958C9.47838 19.8697 9.78335 19.7418 10.102 19.7402V19.7408Z" fill="white"/>
</svg>
