<svg width="48" height="48" viewBox="0 0 48 48" fill="none" xmlns="http://www.w3.org/2000/svg">
<rect width="48" height="48" rx="8" fill="#F2F3F4"/>
<rect width="48" height="48" rx="8" fill="url(#paint0_linear_495_7258)"/>
<rect width="48" height="48" rx="8" fill="white" fill-opacity="0.14"/>
<path d="M19.079 13.3223H16.199V16.9979H12.5234V19.8779H16.199V23.5535H19.079V19.8779H22.7546V16.9979H19.079V13.3223ZM20.2382 25.8023L17.639 28.4015L15.0398 25.8023L13.0034 27.8387L15.6026 30.4379L13.0034 33.0368L15.0398 35.0735L17.639 32.4743L20.2382 35.0735L22.2746 33.0368L19.6754 30.4379L22.2746 27.8387L20.2382 25.8023ZM25.4834 28.3199H35.7149V31.1999H25.4834V28.3199ZM32.039 25.5599C32.039 25.178 31.8873 24.8117 31.6173 24.5416C31.3472 24.2716 30.9809 24.1199 30.599 24.1199C28.6927 24.1856 28.6932 26.9343 30.599 26.9999C30.9809 26.9999 31.3472 26.8482 31.6173 26.5781C31.8873 26.308 32.039 25.9418 32.039 25.5599ZM30.599 32.5199C30.2171 32.5199 29.8509 32.6716 29.5808 32.9416C29.3108 33.2117 29.159 33.578 29.159 33.9599C29.2248 35.8662 31.9735 35.8657 32.039 33.9599C32.039 33.578 31.8873 33.2117 31.6173 32.9416C31.3472 32.6716 30.9809 32.5199 30.599 32.5199ZM25.4834 16.9779H35.7149V19.8579H25.4834V16.9779Z" fill="white"/>
<defs>
<linearGradient id="paint0_linear_495_7258" x1="0" y1="0" x2="48" y2="48" gradientUnits="userSpaceOnUse">
<stop stop-color="#7C2CFC"/>
<stop offset="1" stop-color="#422382"/>
</linearGradient>
</defs>
</svg>
