<svg width="204" height="204" viewBox="0 0 204 204" fill="none" xmlns="http://www.w3.org/2000/svg">
<path d="M2 95.8272L99.2222 2L202.309 101.691L105.704 202L2 95.8272Z" fill="white" fill-opacity="0.3"/>
<path d="M99.2222 2L2 95.8272M99.2222 2L202.309 101.691M99.2222 2L77.9259 123.914M2 95.8272L105.704 202M2 95.8272L77.9259 123.914M105.704 202L202.309 101.691M105.704 202L77.9259 123.914M202.309 101.691L77.9259 123.914" stroke="white" stroke-width="3" stroke-linejoin="round"/>
<path d="M109.713 74.9287L109.533 74.8761L109.716 74.8392L109.713 74.9287Z" fill="white" fill-opacity="0.3"/>
<path d="M98.9135 3.85156L109.407 74.8392L200.148 101.382M2.61719 96.4442L109.716 74.8392L105.704 201.691" stroke="white" stroke-width="2" stroke-linejoin="round" stroke-dasharray="8 8"/>
</svg>
