<svg width="24" height="24" viewBox="0 0 24 24" fill="none" xmlns="http://www.w3.org/2000/svg">
<path fill-rule="evenodd" clip-rule="evenodd" d="M20 19C20.5523 19 21 18.5523 21 18C21 17.4477 20.5523 17 20 17L18 17L18 16C18 15.4477 17.5523 15 17 15C16.4477 15 16 15.4477 16 16L16 17L4 17C3.44772 17 3 17.4477 3 18C3 18.5523 3.44772 19 4 19L16 19L16 20C16 20.5523 16.4477 21 17 21C17.5523 21 18 20.5523 18 20L18 19L20 19ZM4 11C3.44772 11 3 11.4477 3 12C3 12.5523 3.44772 13 4 13L6 13L6 14C6 14.5523 6.44772 15 7 15C7.55228 15 8 14.5523 8 14L8 13L20 13C20.5523 13 21 12.5523 21 12C21 11.4477 20.5523 11 20 11L8 11L8 10C8 9.44771 7.55228 9 7 9C6.44772 9 6 9.44772 6 10L6 11L4 11ZM3 6C3 5.44771 3.44772 5 4 5L16 5L16 4C16 3.44772 16.4477 3 17 3C17.5523 3 18 3.44772 18 4L18 5L20 5C20.5523 5 21 5.44771 21 6C21 6.55228 20.5523 7 20 7L18 7L18 8C18 8.55229 17.5523 9 17 9C16.4477 9 16 8.55229 16 8L16 7L4 7C3.44772 7 3 6.55228 3 6Z" fill="#7C2CFC"/>
</svg>
