<svg width="24" height="24" viewBox="0 0 24 24" fill="none" xmlns="http://www.w3.org/2000/svg">
<path d="M2.57115 8.14258C2.68481 8.14258 2.79382 8.09743 2.8742 8.01705C2.95457 7.93668 2.99972 7.82767 2.99972 7.71401V4.38144C3.00017 4.01512 3.14589 3.66394 3.40492 3.40492C3.66394 3.14589 4.01512 3.00017 4.38144 2.99972H7.71401C7.82767 2.99972 7.93668 2.95457 8.01705 2.8742C8.09743 2.79382 8.14258 2.68481 8.14258 2.57115C8.14258 2.45749 8.09743 2.34848 8.01705 2.2681C7.93668 2.18773 7.82767 2.14258 7.71401 2.14258H4.38144C3.78786 2.14326 3.2188 2.37936 2.79908 2.79908C2.37936 3.2188 2.14326 3.78786 2.14258 4.38144V7.71401C2.14258 7.82767 2.18773 7.93668 2.2681 8.01705C2.34848 8.09743 2.45749 8.14258 2.57115 8.14258ZM19.618 2.14258H16.2854C16.1718 2.14258 16.0628 2.18773 15.9824 2.2681C15.902 2.34848 15.8569 2.45749 15.8569 2.57115C15.8569 2.68481 15.902 2.79382 15.9824 2.8742C16.0628 2.95457 16.1718 2.99972 16.2854 2.99972H19.618C19.9843 3.00017 20.3355 3.14589 20.5945 3.40492C20.8535 3.66394 20.9993 4.01512 20.9997 4.38144V7.71401C20.9997 7.82767 21.0449 7.93668 21.1252 8.01705C21.2056 8.09743 21.3146 8.14258 21.4283 8.14258C21.542 8.14258 21.651 8.09743 21.7313 8.01705C21.8117 7.93668 21.8569 7.82767 21.8569 7.71401V4.38144C21.8562 3.78786 21.6201 3.2188 21.2004 2.79908C20.7806 2.37936 20.2116 2.14326 19.618 2.14258ZM7.71401 20.9997H4.38144C4.01512 20.9993 3.66394 20.8535 3.40492 20.5945C3.14589 20.3355 3.00017 19.9843 2.99972 19.618V16.2854C2.99972 16.1718 2.95457 16.0628 2.8742 15.9824C2.79382 15.902 2.68481 15.8569 2.57115 15.8569C2.45749 15.8569 2.34848 15.902 2.2681 15.9824C2.18773 16.0628 2.14258 16.1718 2.14258 16.2854V19.618C2.14326 20.2116 2.37936 20.7806 2.79908 21.2004C3.2188 21.6201 3.78786 21.8562 4.38144 21.8569H7.71401C7.82767 21.8569 7.93668 21.8117 8.01705 21.7313C8.09743 21.651 8.14258 21.542 8.14258 21.4283C8.14258 21.3146 8.09743 21.2056 8.01705 21.1252C7.93668 21.0449 7.82767 20.9997 7.71401 20.9997ZM21.4283 15.8569C21.3146 15.8569 21.2056 15.902 21.1252 15.9824C21.0449 16.0628 20.9997 16.1718 20.9997 16.2854V19.618C20.9993 19.9843 20.8535 20.3355 20.5945 20.5945C20.3355 20.8535 19.9843 20.9993 19.618 20.9997H16.2854C16.1718 20.9997 16.0628 21.0449 15.9824 21.1252C15.902 21.2056 15.8569 21.3146 15.8569 21.4283C15.8569 21.542 15.902 21.651 15.9824 21.7313C16.0628 21.8117 16.1718 21.8569 16.2854 21.8569H19.618C20.2116 21.8562 20.7806 21.6201 21.2004 21.2004C21.6201 20.7806 21.8562 20.2116 21.8569 19.618V16.2854C21.8569 16.1718 21.8117 16.0628 21.7313 15.9824C21.651 15.902 21.542 15.8569 21.4283 15.8569ZM17.9997 15.214V8.78544C17.9997 8.71021 17.9799 8.63631 17.9423 8.57116C17.9047 8.50601 17.8506 8.45191 17.7854 8.41429L12.214 5.20001C12.1489 5.16239 12.075 5.14259 11.9997 5.14259C11.9245 5.14259 11.8506 5.16239 11.7854 5.20001L6.21829 8.41429C6.15314 8.45191 6.09904 8.50601 6.06143 8.57116C6.02381 8.63631 6.00401 8.71021 6.00401 8.78544V15.214C6.00401 15.2892 6.02381 15.3631 6.06143 15.4283C6.09904 15.4934 6.15314 15.5475 6.21829 15.5852L11.7897 18.7994C11.8549 18.8371 11.9288 18.8569 12.004 18.8569C12.0792 18.8569 12.1531 18.8371 12.2183 18.7994L17.7897 15.5852C17.8541 15.547 17.9073 15.4927 17.9442 15.4276C17.981 15.3624 18.0002 15.2888 17.9997 15.214ZM11.9997 6.06572L16.714 8.78544L11.9997 11.5052L7.28972 8.78544L11.9997 6.06572ZM6.86115 9.52772L11.5712 12.2474V17.686L6.86115 14.9663V9.52772ZM12.4283 17.686V12.2474L17.1426 9.52772V14.9663L12.4283 17.686Z" fill="white"/>
</svg>
