<svg width="24" height="24" viewBox="0 0 24 24" fill="none" xmlns="http://www.w3.org/2000/svg">
<path d="M21 10.25H20.5V9.75C20.5 8.371 19.379 7.25 18 7.25H14.5C14.5 6.423 13.827 5.75 13 5.75H11C10.173 5.75 9.5 6.423 9.5 7.25H6C5.33712 7.25053 4.70154 7.51409 4.23282 7.98282C3.76409 8.45154 3.50053 9.08712 3.5 9.75V10.25H3C2.173 10.25 1.5 10.923 1.5 11.75V13.75C1.5 14.577 2.173 15.25 3 15.25H3.5V15.75C3.5 17.129 4.621 18.25 6 18.25H9C9.827 18.25 10.5 17.577 10.5 16.75C10.5 16.475 10.725 16.25 11 16.25H13C13.275 16.25 13.5 16.475 13.5 16.75C13.5 17.577 14.173 18.25 15 18.25H18C19.379 18.25 20.5 17.129 20.5 15.75V15.25H21C21.827 15.25 22.5 14.577 22.5 13.75V11.75C22.5 10.923 21.827 10.25 21 10.25ZM11 6.75H13C13.275 6.75 13.5 6.975 13.5 7.25H10.5C10.5 6.975 10.725 6.75 11 6.75ZM3 14.25C2.86747 14.2497 2.74045 14.197 2.64674 14.1033C2.55303 14.0096 2.50026 13.8825 2.5 13.75V11.75C2.5 11.475 2.725 11.25 3 11.25H3.5V14.25H3ZM19.5 15.75C19.5 16.577 18.827 17.25 18 17.25H15C14.8675 17.2497 14.7404 17.197 14.6467 17.1033C14.553 17.0096 14.5003 16.8825 14.5 16.75C14.5 15.923 13.827 15.25 13 15.25H11C10.173 15.25 9.5 15.923 9.5 16.75C9.5 17.025 9.275 17.25 9 17.25H6C5.173 17.25 4.5 16.577 4.5 15.75V9.75C4.5 8.923 5.173 8.25 6 8.25H18C18.827 8.25 19.5 8.923 19.5 9.75V15.75ZM21.5 13.75C21.5 14.025 21.275 14.25 21 14.25H20.5V11.25H21C21.275 11.25 21.5 11.475 21.5 11.75V13.75Z" fill="#7C2CFC" stroke="#7C2CFC" stroke-width="0.5"/>
</svg>
