<svg width="375" height="105" viewBox="0 0 375 105" fill="none" xmlns="http://www.w3.org/2000/svg">
<g opacity="0.9">
<path d="M366 57.7899C366 58.5298 366.294 59.2393 366.819 59.7625C367.343 60.2857 368.055 60.5798 368.797 60.5798C369.538 60.5798 370.25 60.2857 370.775 59.7625C371.299 59.2393 371.594 58.5298 371.594 57.7899C371.594 57.05 371.299 56.3403 370.775 55.8171C370.25 55.2939 369.538 55 368.797 55C368.055 55 367.343 55.2939 366.819 55.8171C366.294 56.3403 366 57.05 366 57.7899Z" fill="white"/>
<path d="M134.998 46C134.998 46.2652 135.103 46.5195 135.291 46.7071C135.478 46.8946 135.733 47 135.998 47C136.263 47 136.518 46.8946 136.705 46.7071C136.893 46.5195 136.998 46.2652 136.998 46C136.998 45.7348 136.893 45.4804 136.705 45.2929C136.518 45.1054 136.263 45 135.998 45C135.733 45 135.478 45.1054 135.291 45.2929C135.103 45.4804 134.998 45.7348 134.998 46Z" fill="white"/>
<path d="M215 70.5C215 70.6326 215.053 70.7598 215.146 70.8535C215.24 70.9473 215.367 71 215.5 71C215.633 71 215.76 70.9473 215.854 70.8535C215.947 70.7598 216 70.6326 216 70.5C216 70.3674 215.947 70.2402 215.854 70.1464C215.76 70.0527 215.633 70 215.5 70C215.367 70 215.24 70.0527 215.146 70.1464C215.053 70.2402 215 70.3674 215 70.5Z" fill="white"/>
<path d="M269 95.5C269 95.6326 269.053 95.7598 269.146 95.8535C269.24 95.9473 269.367 96 269.5 96C269.633 96 269.76 95.9473 269.854 95.8535C269.947 95.7598 270 95.6326 270 95.5C270 95.3674 269.947 95.2402 269.854 95.1464C269.76 95.0527 269.633 95 269.5 95C269.367 95 269.24 95.0527 269.146 95.1464C269.053 95.2402 269 95.3674 269 95.5Z" fill="white"/>
<path d="M284 71.5C284 71.8978 284.158 72.2794 284.439 72.5607C284.721 72.842 285.102 73 285.5 73C285.898 73 286.279 72.842 286.561 72.5607C286.842 72.2794 287 71.8978 287 71.5C287 71.1022 286.842 70.7206 286.561 70.4393C286.279 70.158 285.898 70 285.5 70C285.102 70 284.721 70.158 284.439 70.4393C284.158 70.7206 284 71.1022 284 71.5Z" fill="white"/>
<path d="M5.99805 51.5C5.99805 51.8978 6.15608 52.2794 6.43739 52.5607C6.71869 52.842 7.10022 53 7.49805 53C7.89587 53 8.2774 52.842 8.55871 52.5607C8.84001 52.2794 8.99805 51.8978 8.99805 51.5C8.99805 51.1022 8.84001 50.7206 8.55871 50.4393C8.2774 50.158 7.89587 50 7.49805 50C7.10022 50 6.71869 50.158 6.43739 50.4393C6.15608 50.7206 5.99805 51.1022 5.99805 51.5Z" fill="white"/>
<path d="M68.998 100C68.998 100.265 69.1034 100.52 69.2909 100.707C69.4785 100.895 69.7328 101 69.998 101C70.2633 101 70.5176 100.895 70.7052 100.707C70.8927 100.52 70.998 100.265 70.998 100C70.998 99.7348 70.8927 99.4804 70.7052 99.2929C70.5176 99.1054 70.2633 99 69.998 99C69.7328 99 69.4785 99.1054 69.2909 99.2929C69.1034 99.4804 68.998 99.7348 68.998 100Z" fill="white"/>
<path d="M4.99805 10.5C4.99805 10.8978 5.15608 11.2794 5.43739 11.5607C5.71869 11.842 6.10022 12 6.49805 12C6.89587 12 7.2774 11.842 7.55871 11.5607C7.84001 11.2794 7.99805 10.8978 7.99805 10.5C7.99805 10.1022 7.84001 9.72065 7.55871 9.43934C7.2774 9.15804 6.89587 9 6.49805 9C6.10022 9 5.71869 9.15804 5.43739 9.43934C5.15608 9.72065 4.99805 10.1022 4.99805 10.5Z" fill="white"/>
<path d="M325 69C325 69.2652 325.105 69.5196 325.293 69.7071C325.48 69.8946 325.735 70 326 70C326.265 70 326.52 69.8946 326.707 69.7071C326.895 69.5196 327 69.2652 327 69C327 68.7348 326.895 68.4804 326.707 68.2929C326.52 68.1054 326.265 68 326 68C325.735 68 325.48 68.1054 325.293 68.2929C325.105 68.4804 325 68.7348 325 69Z" fill="white"/>
</g>
</svg>
