<svg width="359" height="94" viewBox="0 0 359 94" fill="none" xmlns="http://www.w3.org/2000/svg">
<path d="M302 93C302 93.2652 302.105 93.5196 302.293 93.7071C302.48 93.8946 302.735 94 303 94C303.265 94 303.52 93.8946 303.707 93.7071C303.895 93.5196 304 93.2652 304 93C304 92.7348 303.895 92.4804 303.707 92.2929C303.52 92.1054 303.265 92 303 92C302.735 92 302.48 92.1054 302.293 92.2929C302.105 92.4804 302 92.7348 302 93Z" fill="white"/>
<path d="M354 64C354 64.2652 354.105 64.5196 354.293 64.7071C354.48 64.8946 354.735 65 355 65C355.265 65 355.52 64.8946 355.707 64.7071C355.895 64.5196 356 64.2652 356 64C356 63.7348 355.895 63.4804 355.707 63.2929C355.52 63.1054 355.265 63 355 63C354.735 63 354.48 63.1054 354.293 63.2929C354.105 63.4804 354 63.7348 354 64Z" fill="white"/>
<path d="M297 66C297 66.2652 297.105 66.5196 297.293 66.7071C297.48 66.8946 297.735 67 298 67C298.265 67 298.52 66.8946 298.707 66.7071C298.895 66.5196 299 66.2652 299 66C299 65.7348 298.895 65.4804 298.707 65.2929C298.52 65.1054 298.265 65 298 65C297.735 65 297.48 65.1054 297.293 65.2929C297.105 65.4804 297 65.7348 297 66Z" fill="white"/>
<path d="M263 76C263 76.2652 263.105 76.5196 263.293 76.7071C263.48 76.8946 263.735 77 264 77C264.265 77 264.52 76.8946 264.707 76.7071C264.895 76.5196 265 76.2652 265 76C265 75.7348 264.895 75.4804 264.707 75.2929C264.52 75.1054 264.265 75 264 75C263.735 75 263.48 75.1054 263.293 75.2929C263.105 75.4804 263 75.7348 263 76Z" fill="white"/>
<path d="M75 81C75 81.2652 75.1054 81.5196 75.2929 81.7071C75.4804 81.8946 75.7348 82 76 82C76.2652 82 76.5196 81.8946 76.7071 81.7071C76.8946 81.5196 77 81.2652 77 81C77 80.7348 76.8946 80.4804 76.7071 80.2929C76.5196 80.1054 76.2652 80 76 80C75.7348 80 75.4804 80.1054 75.2929 80.2929C75.1054 80.4804 75 80.7348 75 81Z" fill="white"/>
<path d="M59 47C59 47.2652 59.1054 47.5196 59.2929 47.7071C59.4804 47.8946 59.7348 48 60 48C60.2652 48 60.5196 47.8946 60.7071 47.7071C60.8946 47.5196 61 47.2652 61 47C61 46.7348 60.8946 46.4804 60.7071 46.2929C60.5196 46.1054 60.2652 46 60 46C59.7348 46 59.4804 46.1054 59.2929 46.2929C59.1054 46.4804 59 46.7348 59 47Z" fill="white"/>
<path d="M338 85C338 85.2652 338.105 85.5196 338.293 85.7071C338.48 85.8946 338.735 86 339 86C339.265 86 339.52 85.8946 339.707 85.7071C339.895 85.5196 340 85.2652 340 85C340 84.7348 339.895 84.4804 339.707 84.2929C339.52 84.1054 339.265 84 339 84C338.735 84 338.48 84.1054 338.293 84.2929C338.105 84.4804 338 84.7348 338 85Z" fill="white"/>
<path d="M144 71C144 71.2652 144.105 71.5196 144.293 71.7071C144.48 71.8946 144.735 72 145 72C145.265 72 145.52 71.8946 145.707 71.7071C145.895 71.5196 146 71.2652 146 71C146 70.7348 145.895 70.4804 145.707 70.2929C145.52 70.1054 145.265 70 145 70C144.735 70 144.48 70.1054 144.293 70.2929C144.105 70.4804 144 70.7348 144 71Z" fill="white"/>
<path d="M358 87C358 87.2652 358.105 87.5196 358.293 87.7071C358.48 87.8946 358.735 88 359 88C359.265 88 359.52 87.8946 359.707 87.7071C359.895 87.5196 360 87.2652 360 87C360 86.7348 359.895 86.4804 359.707 86.2929C359.52 86.1054 359.265 86 359 86C358.735 86 358.48 86.1054 358.293 86.2929C358.105 86.4804 358 86.7348 358 87Z" fill="white"/>
<path d="M237 78.5C237 78.6326 237.053 78.7598 237.146 78.8536C237.24 78.9473 237.367 79 237.5 79C237.633 79 237.76 78.9473 237.854 78.8536C237.947 78.7598 238 78.6326 238 78.5C238 78.3674 237.947 78.2402 237.854 78.1464C237.76 78.0527 237.633 78 237.5 78C237.367 78 237.24 78.0527 237.146 78.1464C237.053 78.2402 237 78.3674 237 78.5Z" fill="white"/>
<path d="M18 81.5C18 81.6326 18.0527 81.7598 18.1464 81.8536C18.2402 81.9473 18.3674 82 18.5 82C18.6326 82 18.7598 81.9473 18.8536 81.8536C18.9473 81.7598 19 81.6326 19 81.5C19 81.3674 18.9473 81.2402 18.8536 81.1464C18.7598 81.0527 18.6326 81 18.5 81C18.3674 81 18.2402 81.0527 18.1464 81.1464C18.0527 81.2402 18 81.3674 18 81.5Z" fill="white"/>
<path d="M7 55.5C7 55.6326 7.05268 55.7598 7.14645 55.8536C7.24022 55.9473 7.36739 56 7.5 56C7.63261 56 7.75978 55.9473 7.85355 55.8536C7.94732 55.7598 8 55.6326 8 55.5C8 55.3674 7.94732 55.2402 7.85355 55.1464C7.75978 55.0527 7.63261 55 7.5 55C7.36739 55 7.24022 55.0527 7.14645 55.1464C7.05268 55.2402 7 55.3674 7 55.5Z" fill="white"/>
<path d="M9 7.5C9 7.63261 9.05268 7.75978 9.14645 7.85355C9.24022 7.94732 9.36739 8 9.5 8C9.63261 8 9.75978 7.94732 9.85355 7.85355C9.94732 7.75978 10 7.63261 10 7.5C10 7.36739 9.94732 7.24022 9.85355 7.14645C9.75978 7.05268 9.63261 7 9.5 7C9.36739 7 9.24022 7.05268 9.14645 7.14645C9.05268 7.24022 9 7.36739 9 7.5Z" fill="white"/>
<path d="M94 9.5C94 9.63261 94.0527 9.75978 94.1464 9.85355C94.2402 9.94732 94.3674 10 94.5 10C94.6326 10 94.7598 9.94732 94.8536 9.85355C94.9473 9.75978 95 9.63261 95 9.5C95 9.36739 94.9473 9.24022 94.8536 9.14645C94.7598 9.05268 94.6326 9 94.5 9C94.3674 9 94.2402 9.05268 94.1464 9.14645C94.0527 9.24022 94 9.36739 94 9.5Z" fill="white"/>
<path d="M42 0.5C42 0.632609 42.0527 0.759784 42.1464 0.853553C42.2402 0.947321 42.3674 1 42.5 1C42.6326 1 42.7598 0.947321 42.8536 0.853553C42.9473 0.759784 43 0.632609 43 0.5C43 0.367391 42.9473 0.240216 42.8536 0.146447C42.7598 0.0526787 42.6326 -1.60592e-08 42.5 -2.18557e-08C42.3674 -2.76522e-08 42.2402 0.0526786 42.1464 0.146447C42.0527 0.240216 42 0.367391 42 0.5Z" fill="white"/>
<path d="M297 0.5C297 0.632609 297.053 0.759784 297.146 0.853553C297.24 0.947321 297.367 1 297.5 1C297.633 1 297.76 0.947321 297.854 0.853553C297.947 0.759784 298 0.632609 298 0.5C298 0.367391 297.947 0.240216 297.854 0.146447C297.76 0.0526787 297.633 -1.60592e-08 297.5 -2.18557e-08C297.367 -2.76522e-08 297.24 0.0526786 297.146 0.146447C297.053 0.240216 297 0.367391 297 0.5Z" fill="white"/>
<path d="M358 4.5C358 4.63261 358.053 4.75978 358.146 4.85355C358.24 4.94732 358.367 5 358.5 5C358.633 5 358.76 4.94732 358.854 4.85355C358.947 4.75978 359 4.63261 359 4.5C359 4.36739 358.947 4.24022 358.854 4.14645C358.76 4.05268 358.633 4 358.5 4C358.367 4 358.24 4.05268 358.146 4.14645C358.053 4.24022 358 4.36739 358 4.5Z" fill="white"/>
<path d="M249 45.5C249 45.6326 249.053 45.7598 249.146 45.8536C249.24 45.9473 249.367 46 249.5 46C249.633 46 249.76 45.9473 249.854 45.8536C249.947 45.7598 250 45.6326 250 45.5C250 45.3674 249.947 45.2402 249.854 45.1464C249.76 45.0527 249.633 45 249.5 45C249.367 45 249.24 45.0527 249.146 45.1464C249.053 45.2402 249 45.3674 249 45.5Z" fill="white"/>
<path d="M128 80.5C128 80.6326 128.053 80.7598 128.146 80.8536C128.24 80.9473 128.367 81 128.5 81C128.633 81 128.76 80.9473 128.854 80.8536C128.947 80.7598 129 80.6326 129 80.5C129 80.3674 128.947 80.2402 128.854 80.1464C128.76 80.0527 128.633 80 128.5 80C128.367 80 128.24 80.0527 128.146 80.1464C128.053 80.2402 128 80.3674 128 80.5Z" fill="white"/>
<path d="M55 57.5C55 57.6326 55.0527 57.7598 55.1464 57.8536C55.2402 57.9473 55.3674 58 55.5 58C55.6326 58 55.7598 57.9473 55.8536 57.8536C55.9473 57.7598 56 57.6326 56 57.5C56 57.3674 55.9473 57.2402 55.8536 57.1464C55.7598 57.0527 55.6326 57 55.5 57C55.3674 57 55.2402 57.0527 55.1464 57.1464C55.0527 57.2402 55 57.3674 55 57.5Z" fill="white"/>
<path d="M110 69.5C110 69.6326 110.053 69.7598 110.146 69.8536C110.24 69.9473 110.367 70 110.5 70C110.633 70 110.76 69.9473 110.854 69.8536C110.947 69.7598 111 69.6326 111 69.5C111 69.3674 110.947 69.2402 110.854 69.1464C110.76 69.0527 110.633 69 110.5 69C110.367 69 110.24 69.0527 110.146 69.1464C110.053 69.2402 110 69.3674 110 69.5Z" fill="white"/>
<path d="M217 58.5C217 58.6326 217.053 58.7598 217.146 58.8536C217.24 58.9473 217.367 59 217.5 59C217.633 59 217.76 58.9473 217.854 58.8536C217.947 58.7598 218 58.6326 218 58.5C218 58.3674 217.947 58.2402 217.854 58.1464C217.76 58.0527 217.633 58 217.5 58C217.367 58 217.24 58.0527 217.146 58.1464C217.053 58.2402 217 58.3674 217 58.5Z" fill="white"/>
</svg>
